<?xml version="1.0" standalone="no"?>
<!DOCTYPE svg PUBLIC "-//W3C//DTD SVG 20010904//EN"
 "http://www.w3.org/TR/2001/REC-SVG-20010904/DTD/svg10.dtd">
<svg version="1.0" xmlns="http://www.w3.org/2000/svg"
 width="896.000000pt" height="896.000000pt" viewBox="0 0 896.000000 896.000000"
 preserveAspectRatio="xMidYMid meet">
<metadata>
Created by potrace 1.11, written by Peter Selinger 2001-2013
</metadata>
<g transform="translate(0.000000,896.000000) scale(0.100000,-0.100000)"
fill="#000000" stroke="none">
<path d="M2748 8085 c-2 -2 -16 -5 -33 -8 -158 -28 -299 -72 -410 -129 -62
-31 -181 -105 -201 -123 -6 -5 -26 -21 -45 -35 -18 -14 -66 -59 -106 -100
-101 -104 -107 -111 -129 -145 -10 -16 -21 -32 -25 -35 -12 -9 -56 -85 -97
-165 -57 -112 -96 -229 -127 -381 -7 -33 -18 -175 -18 -229 0 -109 16 -226 47
-352 22 -90 118 -314 137 -321 5 -2 9 -7 9 -12 0 -11 76 -127 104 -159 61 -68
178 -181 231 -222 81 -61 191 -129 210 -129 8 0 15 -4 15 -9 0 -18 260 -106
350 -118 19 -2 49 -8 66 -13 37 -9 347 -6 384 4 14 4 39 9 55 11 50 7 138 31
163 44 12 6 22 9 22 7 0 -19 257 112 340 173 54 40 59 44 91 74 16 15 31 27
34 27 13 0 125 126 185 210 22 30 43 60 48 65 25 35 84 153 110 220 13 33 27
69 32 80 12 30 42 155 47 200 3 22 8 56 12 75 17 81 2 360 -25 443 -4 12 -8
29 -8 37 -3 37 -74 226 -108 288 -48 86 -63 111 -95 156 -20 27 -40 54 -44 60
-5 6 -19 22 -30 36 -66 81 -269 260 -295 260 -4 0 -15 6 -23 14 -38 33 -261
136 -326 151 -11 2 -47 11 -80 19 -33 8 -78 17 -100 21 -40 7 -361 16 -367 10z"/>
<path d="M7015 7387 c-10 -23 -18 -45 -19 -49 -1 -3 -4 -10 -8 -14 -5 -4 -8
-16 -8 -26 0 -10 -4 -18 -10 -18 -5 0 -10 -7 -10 -15 0 -8 -11 -39 -25 -69
-27 -59 -42 -96 -44 -109 0 -4 -7 -20 -16 -37 -17 -34 -195 -450 -199 -465 -1
-5 -11 -28 -21 -50 -11 -22 -20 -42 -21 -45 0 -3 -8 -23 -18 -45 -9 -22 -33
-78 -53 -125 -19 -47 -41 -98 -48 -115 -30 -66 -137 -321 -139 -330 -2 -5 -17
-39 -34 -75 -17 -35 -28 -68 -26 -72 3 -5 0 -8 -5 -8 -6 0 -11 -7 -11 -15 0
-8 -4 -23 -10 -33 -5 -9 -28 -62 -51 -117 -23 -55 -45 -104 -50 -109 -5 -6 -9
-16 -9 -23 0 -7 -13 -42 -30 -78 -16 -36 -30 -72 -30 -80 0 -8 -4 -15 -10 -15
-5 0 -10 -5 -10 -11 0 -12 -65 -171 -86 -211 -9 -16 -12 -28 -8 -28 3 0 2 -6
-4 -12 -5 -7 -40 -85 -77 -173 -37 -88 -78 -184 -91 -213 -13 -29 -24 -55 -24
-58 0 -3 -12 -31 -26 -62 -14 -31 -35 -79 -46 -107 -11 -27 -24 -56 -30 -62
-7 -9 -7 -13 0 -13 11 0 27 6 127 50 55 25 97 43 105 45 3 1 23 9 45 19 79 36
178 76 186 76 4 0 -3 -24 -16 -52 -37 -82 -58 -132 -60 -143 -1 -5 -11 -30
-22 -55 -45 -100 -103 -239 -103 -244 0 -3 -11 -29 -24 -58 -13 -29 -43 -98
-66 -153 -23 -55 -45 -109 -50 -120 -5 -11 -32 -76 -61 -145 -28 -69 -59 -143
-68 -165 -10 -22 -25 -60 -35 -85 -10 -25 -24 -57 -32 -72 -8 -14 -14 -33 -14
-42 0 -9 -5 -16 -12 -16 -6 0 -9 -3 -6 -6 3 -3 -12 -47 -34 -97 -22 -51 -49
-116 -60 -144 -17 -47 -38 -70 -38 -43 0 10 -18 53 -60 145 -22 47 -208 480
-221 512 -8 23 10 16 224 -76 60 -26 70 -26 58 -3 -9 18 -18 40 -96 227 -25
61 -50 119 -55 130 -5 11 -44 103 -86 205 -42 102 -85 204 -95 227 -11 23 -19
44 -19 48 0 3 -11 28 -25 57 -14 28 -25 55 -25 60 0 4 -11 31 -24 60 -14 30
-34 78 -46 108 -12 30 -32 78 -46 108 -13 29 -24 55 -24 57 0 2 -11 29 -25 59
-14 30 -25 57 -25 59 0 3 -8 22 -17 43 -9 22 -17 41 -18 44 -3 8 -23 57 -66
160 -23 52 -49 115 -59 140 -61 147 -64 151 -77 127 -7 -12 -12 -30 -13 -39 0
-10 -4 -18 -10 -18 -5 0 -10 -6 -10 -14 0 -7 -12 -40 -27 -72 -14 -32 -26 -64
-26 -71 0 -7 -4 -13 -9 -13 -4 0 -8 -7 -8 -15 0 -8 -4 -23 -9 -33 -6 -9 -29
-62 -52 -117 -23 -55 -47 -114 -54 -130 -28 -63 -38 -90 -37 -97 1 -5 -3 -8
-9 -8 -5 0 -8 -4 -4 -9 3 -5 1 -12 -5 -16 -5 -3 -10 -12 -10 -19 0 -8 -12 -40
-27 -72 -15 -33 -28 -61 -29 -64 0 -3 -6 -17 -12 -32 -6 -15 -28 -67 -48 -115
-19 -48 -47 -113 -61 -143 -14 -30 -26 -59 -28 -65 -5 -22 -27 -76 -46 -111
-10 -21 -19 -42 -19 -47 0 -4 -12 -34 -26 -65 -14 -31 -29 -66 -34 -77 -5 -11
-25 -60 -46 -110 -20 -49 -47 -112 -59 -140 -12 -27 -31 -72 -41 -100 -10 -27
-26 -66 -35 -85 -10 -19 -16 -37 -14 -39 5 -4 156 58 173 71 6 6 12 7 12 3 0
-4 11 0 25 9 14 9 25 14 25 11 0 -3 14 2 31 10 l30 16 -12 -23 c-7 -13 -11
-23 -10 -23 4 0 -19 -57 -46 -114 -14 -30 -26 -59 -28 -65 -3 -14 -13 -39 -38
-96 -11 -24 -20 -49 -21 -55 -1 -5 -12 -30 -24 -54 -12 -25 -22 -48 -22 -52 0
-3 -9 -27 -20 -53 -12 -25 -20 -47 -20 -48 1 -2 -13 -34 -31 -73 -39 -87 -51
-117 -55 -133 -9 -44 -15 -48 -34 -22 -11 14 -20 31 -20 38 0 7 -4 20 -9 30
-10 18 -31 65 -52 117 -7 17 -12 33 -11 38 1 4 -3 7 -8 7 -5 0 -9 3 -8 8 2 6
-47 131 -102 257 -22 49 -49 115 -49 118 0 1 -23 54 -51 117 -27 62 -50 121
-51 130 0 10 -5 8 -17 -9 -9 -13 -17 -29 -18 -35 -1 -6 -13 -33 -25 -61 -13
-27 -24 -52 -24 -55 -3 -8 -23 -58 -44 -103 -24 -53 -199 -459 -252 -585 -22
-51 -44 -101 -49 -110 -5 -9 -37 -82 -71 -162 -61 -146 -66 -158 -113 -263
-14 -32 -26 -59 -26 -62 0 -2 -14 -34 -31 -72 -16 -37 -34 -77 -39 -88 -4 -11
-17 -40 -28 -65 -73 -166 -162 -380 -162 -389 0 -6 -7 -11 -15 -11 -8 0 -14 3
-13 8 1 4 -8 28 -20 54 -12 26 -22 49 -22 52 0 5 -32 80 -65 151 -8 17 -17 42
-21 57 -3 16 -10 28 -15 28 -5 0 -9 7 -9 16 0 8 -9 36 -21 62 -57 126 -141
330 -141 339 0 4 -6 15 -13 23 -7 8 -14 20 -16 25 -3 17 -11 39 -24 70 -23 52
-45 107 -45 111 0 4 24 -4 75 -26 22 -10 81 -34 130 -54 50 -20 99 -41 110
-46 11 -5 31 -12 45 -16 20 -6 23 -4 14 7 -6 8 -41 86 -78 174 -37 88 -72 171
-78 185 -6 14 -12 27 -13 30 -1 3 -9 23 -19 45 -32 73 -81 190 -81 195 0 3
-13 31 -28 64 -15 32 -27 60 -27 63 0 2 -9 23 -19 47 -11 23 -29 65 -40 92
-10 27 -27 67 -37 89 -10 22 -18 42 -19 45 -5 16 -29 70 -45 103 -11 20 -18
37 -15 37 2 0 -10 30 -26 68 -17 37 -34 76 -38 87 -5 11 -17 38 -26 60 -10 22
-24 55 -31 73 -8 17 -20 47 -28 65 -8 17 -37 88 -66 157 -29 69 -59 141 -67
160 -8 19 -19 44 -24 55 -4 11 -21 50 -38 88 -16 37 -28 67 -26 67 3 0 -4 17
-14 38 -17 33 -59 130 -81 187 -4 11 -21 49 -37 85 -17 36 -35 82 -42 102 -7
21 -17 40 -22 44 -5 3 -7 9 -4 14 3 5 1 11 -4 14 -5 4 -13 -4 -16 -16 -4 -13
-15 -41 -25 -63 -10 -22 -37 -85 -60 -140 -23 -55 -47 -113 -55 -130 -7 -16
-37 -86 -65 -155 -29 -69 -58 -138 -66 -155 -7 -16 -29 -70 -49 -120 -21 -49
-41 -94 -46 -99 -5 -6 -9 -16 -9 -23 0 -12 -39 -104 -66 -155 -8 -15 -15 -31
-16 -35 -1 -13 -18 -55 -39 -100 -12 -24 -22 -49 -23 -55 -1 -7 -9 -29 -18
-48 -22 -45 -168 -391 -168 -396 0 -2 -13 -33 -30 -69 -16 -36 -30 -68 -30
-71 0 -3 -14 -35 -30 -71 -17 -35 -30 -67 -30 -70 0 -3 -6 -19 -14 -36 -8 -18
-40 -93 -71 -167 -31 -74 -60 -144 -65 -155 -32 -67 -88 -210 -84 -214 3 -3
19 2 37 11 66 35 327 137 327 128 0 -4 -10 -30 -22 -57 -12 -26 -22 -50 -23
-53 0 -3 -11 -26 -23 -52 -12 -26 -22 -50 -22 -53 0 -3 -9 -26 -20 -51 -20
-42 -42 -94 -45 -104 -1 -3 -7 -16 -13 -30 -6 -14 -63 -149 -127 -300 -64
-151 -120 -284 -125 -295 -13 -27 -151 -354 -191 -451 -18 -44 -36 -84 -40
-90 -12 -16 0 -24 20 -14 9 5 32 16 51 23 19 8 87 36 150 63 63 26 141 57 172
70 l57 22 -10 -26 c-5 -15 -14 -36 -19 -47 -5 -11 -25 -58 -44 -105 l-34 -85
4296 -3 c2363 -1 4300 2 4304 6 6 6 -29 106 -72 197 -5 11 -32 76 -60 145 -29
69 -60 143 -70 165 -10 22 -30 69 -45 105 -15 36 -34 81 -42 100 -8 19 -19 44
-23 55 -4 11 -15 36 -23 55 -17 40 -67 158 -103 245 -14 33 -34 79 -45 102
-10 24 -19 45 -19 48 0 3 -9 27 -21 53 -12 26 -25 56 -29 67 -4 11 -17 41 -29
67 -12 26 -21 50 -21 53 0 2 -11 28 -24 57 -14 30 -34 78 -46 108 -12 30 -28
69 -35 85 -39 87 -70 161 -70 165 -1 3 -6 15 -13 28 -17 30 -6 29 76 -7 37
-16 85 -37 107 -47 22 -9 45 -18 50 -20 6 -1 74 -30 152 -65 79 -34 145 -60
148 -57 4 4 -94 245 -145 355 -11 24 -20 47 -20 53 0 5 -9 25 -20 45 -11 19
-20 38 -19 43 0 7 -13 38 -67 160 -13 29 -24 55 -24 58 0 3 -7 20 -14 37 -25
53 -118 271 -120 282 -4 12 -29 73 -57 132 -10 24 -19 45 -19 48 0 3 -9 24
-19 48 -11 23 -50 114 -86 202 -96 229 -154 366 -170 400 -17 36 -10 49 18 33
12 -7 24 -13 27 -13 7 -2 23 -9 229 -99 96 -42 176 -74 178 -72 3 2 0 12 -6
23 -10 17 -43 91 -45 103 -1 3 -7 15 -14 28 -7 12 -10 22 -6 22 3 0 0 10 -8
23 -8 12 -22 42 -32 67 -19 48 -31 76 -65 152 -11 26 -21 50 -21 53 0 3 -9 27
-21 53 -12 26 -25 56 -29 67 -4 11 -20 46 -34 78 -14 32 -26 60 -26 63 0 3 -8
24 -19 47 -49 111 -91 214 -91 225 0 7 -4 12 -10 12 -5 0 -10 7 -10 15 0 8 -9
34 -19 57 -24 53 -41 94 -76 178 -14 36 -32 79 -39 95 -8 17 -20 46 -28 65 -9
19 -21 49 -28 65 -8 17 -14 32 -15 35 -3 8 -24 61 -52 125 -14 33 -32 75 -39
93 -8 17 -20 47 -28 65 -8 17 -33 77 -56 132 -23 55 -48 114 -55 130 -17 38
-38 88 -39 95 -1 3 -9 21 -18 40 -9 19 -28 64 -42 100 -31 75 -36 88 -65 152
-12 26 -21 55 -21 63 0 8 -4 15 -10 15 -5 0 -10 6 -10 14 0 8 -6 27 -14 43 -8
15 -38 84 -67 153 -87 211 -101 244 -119 285 -10 22 -23 55 -30 73 -18 47 -25
47 -45 -1z"/>
</g>
</svg>
