<?xml version="1.0" encoding="UTF-8"?>
<svg width="110px" height="157px" viewBox="0 0 110 157" version="1.1" xmlns="http://www.w3.org/2000/svg" xmlns:xlink="http://www.w3.org/1999/xlink">
    <!-- Generator: Sketch 62 (91390) - https://sketch.com -->
    <title>Girl and sun</title>
    <desc>Created with Sketch.</desc>
    <g id="Girl-and-sun" stroke="none" stroke-width="1" fill="none" fill-rule="evenodd">
        <g id="Group-7" transform="translate(55.000000, 78.500000) scale(-1, 1) translate(-55.000000, -78.500000) " fill-rule="nonzero">
            <circle id="Oval" fill="#FFD05B" cx="97.3" cy="11.9" r="11.9"></circle>
            <g id="Characters-standing-/-Woman-standing-/-2">
                <g id="Woman">
                    <path d="M3.75158502,156.275 C3.29658502,156.275 2.94658502,155.972115 2.96408502,155.608654 L2.96408502,155.366346 C2.96408502,155.002885 3.33158502,154.7 3.75158502,154.7 L21.6890851,154.7 C22.1265851,154.7 22.4765851,155.002885 22.4765851,155.366346 L22.4765851,155.608654 C22.4765851,155.972115 22.1090851,156.275 21.6890851,156.275 L3.75158502,156.275 Z M43.7260528,154.7 L71.5510528,154.7 C71.9859772,154.7 72.3385528,155.052576 72.3385528,155.4875 C72.3385528,155.922424 71.9859772,156.275 71.5510528,156.275 L43.7260528,156.275 C43.2911286,156.275 42.9385528,155.922424 42.9385528,155.4875 C42.9385528,155.052576 43.2911286,154.7 43.7260528,154.7 Z" id="Base" fill="#FFD05B"></path>
                    <path d="M31.2175456,95.1289001 C30.753817,104.879213 29.9610549,119.086859 28.8392596,137.751837 C28.776338,138.798757 27.9506381,139.638737 26.9049512,139.7196 C21.3743908,140.147276 18.6091106,140.361113 18.6091106,140.361113 C17.2012849,140.33215 15.7760256,140.304747 14.2744562,140.206716 C13.6751437,140.182877 13.0551095,140.122164 12.4350753,140.061451 C8.39318762,139.222499 5.57097273,138.458278 1.52908503,137.619326 C0.740641085,137.438135 -0.454589844,135.783668 0.307768057,133.056731 C1.07012596,130.329795 3.41345708,114.601926 5.29888615,103.056972 C5.13940301,101.192968 5.15589813,99.332584 5.41974923,97.4887984 C5.71288239,95.3713026 10.8313686,59.9277367 11.4294568,56.4468688 C11.8972898,49.9272485 15.0778247,47.0822641 18.7397828,45.8783132 C19.7191349,45.5563292 20.4593816,44.4145413 21.9388218,43.9225691 C23.2767323,43.477661 26.1732244,43.2030424 30.6282979,43.098713 C32.0727773,42.7714534 35.6354273,42.8837376 38.1022339,44.3066939 C39.0794257,44.8703787 40.3698846,46.1150531 41.9418946,49.0805709 C43.5139043,52.0460887 52.6910342,80.2817202 52.8835342,85.5011187 C54.5635342,90.3094001 55.9460342,94.8138124 56.7510342,97.5665087 C57.4860342,100.06896 57.4860342,102.070921 57.5560342,102.660785 C59.4985342,118.158108 67.3035342,132.082462 63.6635342,135.478646 C63.1035342,135.997011 60.1110342,136.586874 54.1260342,137.784476 C53.7410342,137.855974 53.3910342,137.927473 53.3910342,137.927473 C51.9035342,138.213468 50.5035342,138.427963 49.1035342,138.624585 C49.1035342,138.624585 42.4885342,139.911559 34.9810342,139.33957 C33.7708513,139.243667 32.516355,124.506777 31.2175456,95.1289001 Z" id="Legs" fill="#324A5E"></path>
                    <path d="M38.1022339,44.2450319 C39.0794257,44.8087167 40.3698846,46.0533911 41.9418946,49.0189089 C43.5139043,51.9844267 52.6910342,80.2200583 52.8835342,85.4394567 C54.5635342,90.2477382 55.9460342,94.7521505 56.7510342,97.5048468 C57.4860342,100.007298 57.4860342,102.009259 57.5560342,102.599123 C59.4985342,118.096446 67.3035342,132.0208 63.6635342,135.416984 C63.1035342,135.935349 60.1110342,136.525212 54.1260342,137.722814 C53.7410342,137.794312 53.3910342,137.865811 53.3910342,137.865811 C51.9035342,138.151806 50.5035342,138.366301 49.1035342,138.562923 C49.1035342,138.562923 42.4885342,139.849897 34.9810342,139.277909 C33.7616883,139.181279 32.4973556,124.221114 31.1880361,94.3974138 C31.4921224,87.9203815 31.6441655,83.5030392 31.6441655,81.145387 C32.1814199,76.9535072 32.6995968,72.7439704 33.2368512,68.5520904 C33.7100193,59.0304981 33.8041881,52.5722866 33.5193572,49.1774559 C33.4863681,48.7842651 33.2743971,46.7417797 32.8834441,43.05 L38.1022339,44.2450319 Z" id="Shadow-Legs" fill="#6FAADE" opacity="0.176985679"></path>
                    <path d="M21.6961183,154.7 L3.94621048,154.7 L9.28158502,144.419477 L18.9765851,145.591977 L21.6961183,154.7 Z M71.903317,154.777322 C71.8002092,154.727765 71.6846452,154.7 71.5625963,154.7 L43.7375963,154.7 C43.6787493,154.7 43.6214095,154.706455 43.5662468,154.718695 L45.4500039,144.016977 L56.4159188,143.675 L59.5659188,145.9675 C60.3009188,146.6675 61.0709188,147.3325 61.9284188,147.8925 C63.9759188,149.24 65.0434188,149.2225 68.1584188,150.71 C68.9984188,151.095 69.8209188,151.55 70.6084188,152.04 C70.9934188,152.39 71.6759188,153.09 71.9034188,153.93 C71.9384188,154.07 71.9384188,154.21 71.9559188,154.3325 C71.9599727,154.4906 71.9396107,154.639309 71.903317,154.777322 Z" id="Shoes" fill="#324A5E"></path>
                    <path d="M17.43,58.2844771 C17.43,58.2844771 22.7325,69.5894771 20.0725,70.1319771 C20.0725,70.1319771 18.48,69.2744771 17.325,66.5444771" id="Finger" fill="#482D1F"></path>
                    <g id="Note" transform="translate(1.704085, 60.403655)">
                        <path d="M2.28472366,0.726823437 L0.00972365991,15.9343234 C-0.0602763401,16.4068234 0.25472366,16.8443234 0.72722366,16.9318234 L21.0097237,19.9768235 C21.4822237,20.0468235 21.9197237,19.7318235 22.0072237,19.2593235 L24.2822237,4.05182344 C24.3522237,3.57932344 24.0372237,3.14182344 23.5647237,3.05432344 L3.28222366,0.00932343584 C2.79222366,-0.0606765642 2.35472366,0.271823437 2.28472366,0.726823437 Z" id="Path" fill="#F2F6FB"></path>
                        <path d="M22.0924211,5.96232803 L20.3599211,17.109828 C20.2724211,17.5823281 20.6049211,18.0198281 21.0774211,18.107328 L22.7049211,18.369828 C23.1774211,18.4573281 23.6149211,18.1248281 23.7024211,17.6523281 L25.4349211,6.50482803 C25.5224211,6.03232803 25.1899211,5.59482803 24.717421,5.50732803 L23.0899211,5.24482803 C22.6174211,5.15732803 22.1799211,5.48982803 22.0924211,5.96232803 Z" id="Document" fill="#FF7058"></path>
                    </g>
                    <path d="M33.4708773,18.0546569 C34.7129048,17.5538541 36.6098548,17.1661955 38.5544756,18.2546273 C40.2106908,19.1627921 39.847007,20.4101028 42.6974704,23.2432618 C44.1107735,24.6443325 45.3485098,25.5090486 45.2601644,26.6137013 C45.2052501,27.2483395 44.7566791,27.6920836 44.401644,27.9750261 C42.8012114,28.6157819 41.1969845,29.2539786 39.5908604,29.8920827 L39.653516,35.2765408 L39.6563666,35.4398481 L39.7618412,38.4445509 L39.7618604,39.4788347 C39.7619239,42.8864315 37.1208766,45.7109424 33.720946,45.9393884 L22.5548718,46.6896524 C20.2404944,46.8451587 18.238258,45.0950477 18.0827517,42.7806703 C18.0768133,42.6922905 18.0736724,42.6037449 18.0733336,42.5151666 L18.0358288,32.7102468 C16.2268781,32.8328107 14.4180062,32.9547319 12.6093812,33.0746421 C12.0404512,32.9695235 11.2932524,32.7367276 10.9619994,32.1318492 C10.3714122,31.0543432 11.5555539,29.5952781 12.7338909,27.4655064 C15.090565,23.2059627 14.1114494,22.1336456 15.7898539,20.3826399 C18.1157909,17.9529901 21.2060329,17.6271672 22.9143399,17.6429754 C23.3028682,17.6377864 23.7002353,17.7042084 24.0759675,17.8032367 L24.1194107,17.8258785 C24.9323279,17.5784338 25.7959047,17.4421052 26.6909587,17.4354903 L30.5724319,17.4167461 C31.5802158,17.4058449 32.5559939,17.637946 33.4708773,18.0546569 Z" id="T-shirt" fill="#FF7058"></path>
                    <path d="M19.8701524,140.187544 L18.9765851,145.591977 C18.9765851,145.591977 15.7507517,145.201144 9.29908502,144.419477 C9.34216735,142.5085 9.37464346,140.816133 9.39651337,139.342376 C10.3335542,139.555008 11.3105159,139.770085 12.3715224,139.990312 C12.9915566,140.051025 13.6115908,140.111738 14.2109033,140.135577 C15.7124728,140.233608 17.137732,140.261011 18.5455578,140.289974 L19.8701524,140.187544 Z M55.9810237,137.329163 L56.4159188,143.675 L45.4500039,144.016977 C45.4500039,144.016977 45.0206246,141.693729 44.5117711,139.152045 C47.265576,138.898663 49.0399814,138.553445 49.0399814,138.553445 C50.4399814,138.356824 51.8399814,138.142328 53.3274814,137.856334 C53.3274814,137.856334 53.6774814,137.784835 54.0624814,137.713337 C54.7400824,137.577748 55.3793256,137.44995 55.9810237,137.329163 Z M27.5065408,14.4020705 L26.6669688,11.3401345 C26.6034186,11.1575862 25.9227111,10.9012259 25.5409082,10.5996338 C24.8621576,10.0474358 24.7086002,9.11181024 24.836522,8.17812882 C25.0280852,7.28268702 25.8180513,6.47251124 26.6669688,6.40513825 C26.9853129,6.37987338 27.2908648,6.44797666 27.5963709,6.58823426 L27.6175847,6.6009808 C27.7236538,6.66471351 27.8509822,6.66903842 27.957097,6.66061681 C28.2499936,6.60562521 28.4581262,6.3553388 28.4201148,6.05820855 L27.7948151,1.52482126 C27.7398235,1.23192465 27.930976,0.985871859 28.2238726,0.93088027 C28.86484,0.825176369 29.4761264,0.672765574 30.0832247,0.431220272 C30.1681256,0.410052106 30.2360462,0.393117573 30.3039669,0.37618304 C30.9110196,0.206792072 34.2094072,-0.59755259 36.4236085,1.55574581 C36.6229544,1.77657937 36.8180666,1.98043275 36.9834523,2.20973359 C37.3947992,2.77449557 37.6532791,3.44951458 37.7419572,4.16686994 L38.1007205,7.34188885 C38.1259854,7.66023289 38.1342701,7.98281059 38.1255747,8.30962191 C37.9744764,12.3331931 36.6822942,15.3246596 35.2177656,15.6717719 C34.4621706,15.8240914 33.6811739,15.8745299 32.9172485,15.776426 C32.81402,15.7534178 32.8830098,15.7753027 31.7402164,15.5277427 L31.7254772,17.3233627 C33.6309627,17.6904894 34.4037491,18.3958316 34.4037491,18.3958316 C34.3307442,18.8570478 34.1606863,19.1847085 33.9496101,19.427524 C32.6519002,20.93923 28.7392551,20.1778076 24.2019346,17.7584216 C25.1877302,17.5270678 26.0899051,17.3668909 26.9135048,17.263262 C27.1112707,16.3113903 27.3135285,15.4551213 27.5065408,14.4020705 Z M39.7157745,39.7394883 C39.7204057,39.6391161 39.7227453,39.538174 39.7227434,39.436715 L39.7227241,38.402431 L39.6172493,35.3977285 L39.6143988,35.2344209 L39.5511912,29.8025233 C41.2006297,29.147255 42.8481216,28.4919593 44.4916118,27.8339646 C44.5823859,27.7616229 44.6792743,27.6787696 44.7741345,27.5849019 L49.1929263,33.4183003 C50.351053,32.4563207 55.765021,28.3447434 59.149518,25.783069 C63.8114216,21.6129398 72.8079537,13.65 72.8079537,13.65 C73.947972,14.4801202 73.1362247,17.0632602 71.7751594,19.8524692 C72.3508998,20.2314917 72.9687915,20.9747934 73.6288348,22.0823743 C74.2778234,23.1714047 74.0557729,24.5686485 73.1011467,25.4028322 L67.7469616,30.0814927 C62.3564259,36.5045166 53.0283315,45.9222164 50.3287669,46.8641177 C47.4149104,47.8804121 43.6346118,44.8102077 39.7157745,39.7394883 Z M12.9079911,32.9818967 C16.8704951,32.7187878 20.8341471,32.4463296 24.7971796,32.1789162 L17.5126415,62.9172936 C17.5087022,62.917562 17.5047649,62.9178415 17.5008295,62.9181318 L20.7363546,76.3463991 C20.8131151,76.6649753 20.6585927,76.9941685 20.3644723,77.1386541 C19.3566135,77.6337607 18.0576228,77.8722364 16.4675,77.854081 C13.6709155,77.8221509 11.7425,76.7528867 11.7425,76.7370597 C9.60166335,71.9907501 8.38558259,68.31026 8.09425771,65.6955894 C8.05462168,65.339852 8.05123014,64.9468879 8.08408312,64.5166975 C8.07274137,64.5126758 8.06138035,64.50863 8.05,64.5045597 L12.9079911,32.9818967 Z" id="Skin" fill="#F2A98A"></path>
                    <path d="M33.2660858,18.1607148 C34.4733728,17.6168702 36.4509768,17.0772692 38.5544756,18.2546273 C40.2106908,19.1627921 39.847007,20.4101028 42.6974704,23.2432618 C44.1107735,24.6443325 45.272149,25.4579902 45.272149,26.5663268 C45.272149,27.1870361 44.874939,27.5827729 44.4916118,27.8339645 C42.8477654,28.4921017 41.1988365,29.1510439 39.5511912,29.7897766 L39.4342704,26.2752262 C39.4466537,24.159509 38.8447974,22.2499543 37.6287016,20.5465624 C36.6888275,19.2300757 35.2346221,18.4347931 33.2660858,18.1607148 Z" id="Path" fill="#444444" opacity="0.176985679"></path>
                    <path d="M39.7157745,39.7394882 C39.7204057,39.6391161 39.7227453,39.538174 39.7227434,39.436715 L39.7227241,38.402431 L39.6172493,35.3977285 L39.6143988,35.2344209 L39.5511912,29.8025233 C41.2006297,29.147255 42.8481216,28.4919593 44.4916118,27.8339646 C44.5823859,27.7616229 44.6792743,27.6787696 44.7741345,27.5849019 L49.1929263,33.4183003 C50.351053,32.4563207 55.765021,28.3447434 59.149518,25.783069 C63.8114216,21.6129398 72.8079537,13.65 72.8079537,13.65 C73.947972,14.4801202 73.1362247,17.0632602 71.7751594,19.8524692 C72.3508998,20.2314917 72.9687915,20.9747933 73.6288348,22.0823743 C74.2778234,23.1714047 74.0557729,24.5686485 73.1011466,25.4028322 L67.7469616,30.0814927 C62.3564259,36.5045166 53.0283315,45.9222164 50.3287669,46.8641176 C47.4149104,47.8804121 43.6346118,44.8102077 39.7157745,39.7394882 Z" id="Combined-Shape-Copy" fill="#8C2A00" opacity="0.2"></path>
                    <path d="M16.2105667,71.4621586 C16.1778825,71.3209161 16.2658863,71.1799209 16.4071287,71.1472366 C16.5483711,71.1145524 16.6893665,71.2025562 16.7220507,71.3437986 C16.9248015,72.2199718 17.1111124,72.8991571 17.5488292,74.4122648 C17.9891519,75.9343804 18.1771875,76.6198527 18.38277,77.508263 C18.4154542,77.6495053 18.3274504,77.7905007 18.1862079,77.8231849 C18.0449656,77.8558692 17.9039702,77.7678653 17.8712859,77.6266228 C17.6685351,76.7504498 17.4822242,76.0712645 17.0445074,74.5581567 C16.6041847,73.0360412 16.4161492,72.3505688 16.2105667,71.4621586 Z M12.6447213,70.8478787 C12.6033551,70.7089308 12.6824607,70.5627573 12.8214086,70.5213911 C12.9603565,70.480025 13.1065299,70.5591306 13.1478961,70.6980785 C13.4333122,71.656784 13.6310547,72.3826621 14.0527684,73.9839966 C14.4731017,75.5800897 14.6697916,76.302104 14.9531255,77.2538153 C14.9944917,77.3927632 14.915386,77.5389366 14.7764382,77.5803028 C14.6374903,77.6216689 14.4913168,77.5425633 14.4499507,77.4036154 C14.1645346,76.4449101 13.9667921,75.7190318 13.5450784,74.1176975 C13.124745,72.5216044 12.9280552,71.7995899 12.6447213,70.8478787 Z M24.4125523,32.3408578 C24.4154444,32.19608 24.5350192,32.0810243 24.6797336,32.0836399 C24.6914888,32.0837391 24.7121968,32.0832102 24.7404785,32.0813831 C24.7872844,32.0783592 24.8391671,32.0726303 24.8946698,32.063545 C25.0490534,32.0382738 25.2021668,31.9921493 25.3428068,31.9211193 C25.8035288,31.6884319 26.0485186,31.2438583 25.9713027,30.4646779 C25.9107224,29.8588757 25.8238606,29.3303262 25.7177777,28.8751731 C25.6429948,28.5543144 25.5633941,28.2896955 25.4845066,28.0782628 C25.4388613,27.955925 25.4049861,27.8807196 25.3883824,27.8495875 C25.320159,27.7216686 25.3685518,27.562664 25.4964706,27.4944406 C25.6243895,27.4262172 25.7833942,27.4746099 25.8516176,27.6025288 C25.8791921,27.6542308 25.9226289,27.7506638 25.9763845,27.8947387 C26.0631654,28.1273272 26.1492331,28.4134436 26.229074,28.7560047 C26.3403541,29.2334565 26.4308891,29.7843565 26.4937204,30.4126714 C26.59238,31.4082365 26.2335374,32.0594146 25.5794849,32.3897432 C25.3870575,32.4869286 25.1834686,32.5482582 24.9794788,32.5816496 C24.8518391,32.602543 24.7465211,32.6093469 24.6738942,32.608608 L24.6697573,32.6085482 C24.5248115,32.6056528 24.4096569,32.4858037 24.4125523,32.3408578 Z" id="Combined-Shape" fill="#324A5E"></path>
                    <path d="M21.2472106,8.66035373 C18.2596022,10.7424005 14.9112278,10.6529114 13.2106136,9.07482637 C11.9168451,7.86436129 11.676167,5.88633064 11.6423892,5.60618056 C11.3003778,2.7876997 13.6183771,1.88511426 13.813672,1.80035032 C13.813672,1.80035032 16.6717161,-0.69777823 21.4481893,3.55810625 C21.4631834,3.57153137 21.4782262,3.58506928 21.4933084,3.59872382 C21.7765009,3.10636172 22.1774019,2.69908774 22.6288821,2.36193956 C23.8942931,1.43322206 24.9977306,1.59096191 27.7102338,1.04090909 C28.2620667,0.93939318 29.1155905,0.700206734 30.1259338,0.412228393 C30.2108347,0.391060227 30.2787555,0.374125694 30.3466762,0.357191163 C30.9537287,0.187800193 34.2094072,-0.59755259 36.4236085,1.55574581 C36.419449,1.60937681 34.5263033,8.23465289 29.4929208,9.03868425 L29.4929229,9.0386839 L28.6186849,7.50566579 C28.364256,7.13624427 28.0206472,6.8431651 27.6260521,6.63494114 C27.3205459,6.49468354 27.014994,6.42658028 26.6966499,6.45184515 C25.8477324,6.51921814 25.0577663,7.32939392 24.8662031,8.22483571 C24.6916199,9.11604388 25.0136043,10.0457655 25.7263153,10.5894963 C26.1756047,10.959482 26.7248002,11.163196 27.3121851,11.163555 C27.4059877,12.5615298 27.51875,14.5036777 27.51875,14.5036777 C27.51875,14.5036777 27.2291749,14.5036777 27.0990165,14.5036777 C26.9698201,14.5036777 22.6735008,13.2254103 21.2472106,8.66035373 Z M35.4441526,7.10294967 C35.1130164,7.22158267 34.5526706,7.36129258 34.0688497,7.30156529 C33.23277,7.2034158 33.9589122,6.64361772 34.6890141,6.53372584 C35.0328512,6.46603333 35.3171436,6.59354441 35.5080679,6.70826328 C35.643818,6.81870289 35.6097206,7.04363315 35.4441526,7.10294967 Z M38.7249445,6.51065342 C38.4022756,6.66324678 37.8758445,6.86664375 37.3622968,6.83236389 C36.5091914,6.81060238 37.1632249,6.17860434 37.8976061,6.01353828 C38.2754034,5.93737853 38.546995,6.01394906 38.7548994,6.12443431 C38.9033962,6.21366011 38.8862791,6.43435674 38.7249445,6.51065342 Z" id="Hair" fill="#324A5E"></path>
                    <path d="M37.4823624,8.80267633 C37.3084638,8.61156949 37.313017,8.12346932 37.3259462,7.81363819 C37.326083,7.59717518 37.5171898,7.42327672 37.7124391,7.41066711 C37.8397675,7.41499202 37.9967772,7.46602384 38.0560481,7.70374629 C38.2339519,8.27260499 37.7283238,9.13813749 37.4823624,8.80267633 Z M34.5942756,9.15174498 C34.403397,8.96487177 34.4249304,8.47253797 34.4378594,8.16270682 C34.4379964,7.94624383 34.6291032,7.77234537 34.8243525,7.75973576 C34.9516809,7.76406067 35.1086904,7.81509248 35.1679613,8.05281493 C35.3458653,8.62167362 34.8572173,9.4829725 34.5942756,9.15174498 Z" id="Eyes" fill="#324A5E"></path>
                    <path d="M36.9818181,10.2866824 L37.2776757,8.44194334 L37.5718996,7.45542843 C37.5995226,7.36281008 37.5468334,7.2653352 37.454215,7.23771219 C37.3615966,7.21008915 37.2641218,7.26277829 37.2364988,7.35539664 L36.9389988,8.35289664 L36.9339073,8.37520062 L36.6364073,10.2302006 C36.6352968,10.2368434 36.6202258,10.2466396 36.5889478,10.2421714 L36.5705352,10.2405273 C36.3835846,10.233754 36.1633209,10.1990811 35.9104816,10.1360412 C35.8167026,10.1126595 35.7217252,10.1697277 35.6983434,10.2635066 C35.6749617,10.3572855 35.7320301,10.452263 35.8258089,10.4756447 C36.097204,10.5433111 36.3382299,10.5815739 36.5495961,10.5899836 C36.7572247,10.6147549 36.9483194,10.4876745 36.9818181,10.2866824 Z" id="Path" fill="#324A5E" transform="translate(36.636175, 8.911712) rotate(-14.000000) translate(-36.636175, -8.911712) "></path>
                    <path d="M22.8736116,4.18624785 C22.8736116,4.18624785 22.7686116,6.30374785 20.8786116,8.92874785 L23.9936116,8.54374785 L24.3611116,6.86374785 L22.8736116,4.18624785 Z" id="Path" fill="#324A5E" transform="translate(22.619862, 6.557498) rotate(-14.000000) translate(-22.619862, -6.557498) "></path>
                    <polygon id="Path" fill="#324A5E" transform="translate(31.369662, 16.586123) rotate(-14.000000) translate(-31.369662, -16.586123) " points="32.0521619 15.6673726 30.6871619 14.9673726 31.2996619 18.2048725"></polygon>
                    <path d="M36.0670747,11.9624471 C35.9445747,11.9274471 35.6470747,11.8224471 35.6120747,11.6124471 C35.6120747,11.5774471 35.5945747,11.5249471 35.6120747,11.4899471 C35.6645747,11.4024471 36.2245747,11.4899471 36.2245747,11.4899471 C36.9245747,11.6124471 37.1170747,11.5949471 37.1520747,11.6999471 C37.1695747,11.7524471 37.1520747,11.8224471 36.9945747,11.9624471 C36.8020747,12.2249471 36.2595747,12.0149471 36.0670747,11.9624471 Z" id="Path" fill="#324A5E" transform="translate(36.380919, 11.771369) rotate(-14.000000) translate(-36.380919, -11.771369) "></path>
                </g>
            </g>
        </g>
    </g>
</svg>