<?xml version="1.0" encoding="UTF-8"?>
<svg width="392px" height="380px" viewBox="0 0 392 380" version="1.1" xmlns="http://www.w3.org/2000/svg" xmlns:xlink="http://www.w3.org/1999/xlink">
    <!-- Generator: Sketch 62 (91390) - https://sketch.com -->
    <title>Girl on a bike</title>
    <desc>Created with Sketch.</desc>
    <g id="Girl-on-a-bike" stroke="none" stroke-width="1" fill="none" fill-rule="evenodd">
        <g id="Group-10" transform="translate(31.000000, 75.000000)" fill-rule="nonzero">
            <polygon id="Path" fill="#59BF91" points="0 262.4 90.8151271 69.1232737 176.03819 262.4 259.471792 0 360.8 262.4"></polygon>
            <polygon id="Path" fill="#FFFFFF" opacity="0.8" points="259.471792 0 228.8 95.2615385 247.654422 78.8255688 261.265306 103.2 273.872109 77.8192849 294.854076 91.5944005"></polygon>
            <polygon id="Path" fill="#FFFFFF" opacity="0.8" points="90.4747664 68.8 46.4 162.388805 70.4 145.484607 88.9046729 172.8 107.633645 144.365124 130.4 159.254252"></polygon>
        </g>
        <circle id="Oval" fill="#FFD05B" fill-rule="nonzero" cx="356" cy="34" r="34"></circle>
        <g id="Woman-on-bike" transform="translate(0.000000, 50.000000)" fill-rule="nonzero">
            <g id="Bike" transform="translate(0.000000, 113.348365)">
                <path d="M228.92,-1.4870578e-12 C239.504937,-1.4870578e-12 248.32,7.28656957 248.32,16.3784442 C248.32,23.6423 242.737092,29.7261173 235.10759,31.9009418 L266.999058,96.6359268 C274.862529,93.0563405 283.598689,91.0625479 292.8,91.0625479 C327.262568,91.0625479 355.2,119.031476 355.2,153.532897 C355.2,188.034319 327.262568,216.003247 292.8,216.003247 C258.337432,216.003247 230.4,188.034319 230.4,153.532897 C230.4,129.668809 243.766023,108.930042 263.412303,98.4103509 L247.866002,66.853 L174.620081,148.344852 C173.852964,149.198319 172.538716,149.226173 171.735229,148.437461 L171.624033,148.319234 L100.912,66.892 L88.1590019,96.616854 C109.769851,106.435114 124.8,128.226787 124.8,153.532897 C124.8,188.034319 96.8625684,216.003247 62.4,216.003247 C27.9374316,216.003247 0,188.034319 0,153.532897 C0,119.031476 27.9374316,91.0625479 62.4,91.0625479 C70.1684059,91.0625479 77.6052548,92.4837124 84.4652928,95.080511 L107.042342,42.4585014 C107.478267,41.4424468 108.654402,40.9725574 109.669312,41.4089739 C110.635894,41.8246088 111.107645,42.9123923 110.773813,43.8927544 L110.717658,44.0389056 L103.135,61.709 L245.332002,61.709 L231.022133,32.6609621 C230.330892,32.7243734 229.629482,32.7568884 228.92,32.7568884 C227.815431,32.7568884 226.92,31.8604484 226.92,30.7546336 C226.92,29.6488188 227.815431,28.7523788 228.92,28.7523788 C228.979067,28.7523788 229.038052,28.7521085 229.096956,28.7515694 L224.206299,18.825867 C223.717711,17.8341162 224.124699,16.633618 225.115333,16.1444793 C226.058794,15.6786329 227.191382,16.0260166 227.719169,16.9168688 L227.793701,17.0545389 L233.302837,28.2383042 C239.692454,26.7002474 244.32,21.8976887 244.32,16.3784442 C244.32,9.7762648 237.631428,4.1582433 229.264767,4.00761054 L228.92,4.00450958 L191.76,4.00450958 C190.655431,4.00450958 189.76,3.10806958 189.76,2.00225479 C189.76,0.946704313 190.575878,0.0819271384 191.610738,0.00549192103 L191.76,-1.4870578e-12 L228.92,-1.4870578e-12 Z M292.8,95.0670575 C284.234144,95.0670575 276.09902,96.9133218 268.770013,100.230043 L294.593701,152.647233 C295.082289,153.638984 294.675301,154.839482 293.684667,155.328621 C292.741206,155.794467 291.608618,155.447084 291.080831,154.556232 L291.006299,154.418561 L265.183821,102.004142 C246.858307,111.868299 234.4,131.244061 234.4,153.532897 C234.4,185.822689 260.546571,211.998737 292.8,211.998737 C325.053429,211.998737 351.2,185.822689 351.2,153.532897 C351.2,121.243106 325.053429,95.0670575 292.8,95.0670575 Z M62.4,95.0670575 C30.1465706,95.0670575 4,121.243106 4,153.532897 C4,185.822689 30.1465706,211.998737 62.4,211.998737 C94.6534294,211.998737 120.8,185.822689 120.8,153.532897 C120.8,129.877217 106.766851,109.502849 86.5801145,100.298239 L64.2376578,152.374526 C63.8017327,153.390581 62.6255982,153.86047 61.6106878,153.424054 C60.6441065,153.008419 60.1723551,151.920636 60.5061867,150.940273 L60.5623422,150.794122 L82.8851367,98.7650188 C76.5108572,96.3743497 69.6079239,95.0670575 62.4,95.0670575 Z M180.428392,153.623438 L217.710302,154.726478 C218.814393,154.759145 219.683055,155.681673 219.650513,156.787004 C219.619449,157.842092 218.778475,158.682362 217.741814,158.72816 L217.592454,158.729235 L180.310545,157.626195 C179.206453,157.593529 178.337791,156.671 178.370334,155.565669 C178.402877,154.460339 179.324301,153.590772 180.428392,153.623438 Z M127.541526,121.849482 L127.652712,121.970377 L150.39622,148.798135 C151.110894,149.64115 151.007498,150.904684 150.165278,151.620317 C149.365169,152.300169 148.186107,152.240966 147.457457,151.510566 L147.346271,151.389672 L124.602763,124.561914 C123.888088,123.718899 123.991484,122.455364 124.833704,121.739731 C125.633813,121.05988 126.812875,121.119082 127.541526,121.849482 Z M243.509812,65.7140023 L105.188947,65.7140023 L173.159157,143.983502 L243.509812,65.7140023 Z" id="Combined-Shape" fill="#D8DEED"></path>
                <path d="M171.2,126.462413 C182.466609,126.462413 191.6,135.606101 191.6,146.885411 C191.6,158.164722 182.466609,167.30841 171.2,167.30841 C159.933391,167.30841 150.8,158.164722 150.8,146.885411 C150.8,135.606101 159.933391,126.462413 171.2,126.462413 Z M62.4,141.118918 C69.2483309,141.118918 74.8,146.676846 74.8,153.532897 C74.8,160.388949 69.2483309,165.946877 62.4,165.946877 C55.5516691,165.946877 50,160.388949 50,153.532897 C50,146.676846 55.5516691,141.118918 62.4,141.118918 Z M292.6,141.679549 C299.337874,141.679549 304.8,147.058189 304.8,153.693078 C304.8,160.327967 299.337874,165.706607 292.6,165.706607 C285.862126,165.706607 280.4,160.327967 280.4,153.693078 C280.4,147.058189 285.862126,141.679549 292.6,141.679549 Z M134.2,39.1641037 C138.949649,39.1641037 142.8,43.0144549 142.8,47.7641037 L142.8,47.7834949 C142.8,52.5331438 138.949649,56.3834949 134.2,56.3834949 L100.2,56.3834949 C95.4503512,56.3834949 91.6,52.5331438 91.6,47.7834949 L91.6,47.7641037 C91.6,43.0144549 95.4503512,39.1641037 100.2,39.1641037 L134.2,39.1641037 Z" id="Combined-Shape" fill="#E1E5F0"></path>
            </g>
            <g id="Legs" transform="translate(96.400000, 109.343856)">
                <path d="M25.0978431,114.198136 C25.3721288,114.23246 25.587639,114.384468 25.7947527,114.578506 L25.8978431,114.678677 L57.866,151.601523 L79.2978431,156.365622 C80.2178431,156.565847 80.7378431,157.446839 80.6178431,158.327831 L80.5778431,158.568102 C80.3378431,159.449094 79.4578431,160.009725 78.5778431,159.849545 L55.6978431,154.763818 L23.2178431,117.041337 C22.6531372,116.400616 22.6553517,115.40517 23.2578349,114.789488 L23.3778431,114.678677 L23.5378431,114.518496 C23.9778431,114.158091 24.5378431,114.037955 25.0978431,114.198136 Z M94.9043059,154.345738 L126.052281,155.193885 C126.845603,155.201347 127.497436,155.897539 127.558848,156.788672 L127.571157,157.179038 C127.527648,158.10231 126.822163,158.810613 125.984768,158.802736 L93.9873793,157.932272 C94.3899731,156.783287 94.698991,155.584105 94.9043059,154.345738 Z" id="Base" fill="#FFD05B"></path>
                <path d="M43.6178431,97.2141833 L63.6178431,119.919753 L63.8578431,122.402549 L64.4578431,128.769719 C64.3778431,131.092334 64.4178431,133.374905 64.7378431,135.69752 C64.8978431,136.738693 65.0578431,137.699775 65.2578431,138.540722 C65.4253431,139.227448 65.611929,139.866405 65.8163321,140.492837 C67.7727081,141.78259 70.014765,143.117993 73.3378431,145.708794 C75.0578431,146.990237 76.6178431,148.391816 78.1778431,149.873484 C78.8978431,150.834567 80.0578431,152.756731 80.1378431,154.718941 C80.1378431,155.039302 80.0978431,155.359662 80.0578431,155.639978 C79.9897316,155.963872 79.8817523,156.262367 79.7485624,156.535077 C79.65713,156.483685 79.5597628,156.441275 79.4566938,156.408197 L79.2978431,156.365622 L57.866,151.601523 L25.8978431,114.678677 L25.7947527,114.578506 C25.587639,114.384468 25.3721288,114.23246 25.0978431,114.198136 L25.1678431,114.211183 L43.6178431,97.2141833 Z M95.9300867,132.629347 C97.5491549,134.295487 111.32724,142.377778 118.374247,145.897948 C120.288001,146.83278 122.125992,147.89047 123.926799,149.029598 C124.795603,149.840685 126.333332,151.469845 126.801492,153.416883 C126.892587,153.734255 126.863803,154.055817 126.913551,154.334564 C126.907386,154.712416 126.844299,155.066517 126.745606,155.392732 C126.579043,155.291935 126.394972,155.226654 126.200231,155.203371 L126.052281,155.193885 L94.9416168,154.346554 C94.8522962,154.92973 94.7404656,155.504517 94.6071398,156.069803 L94.5593799,156.067706 C94.9775933,154.438232 95.2,152.730124 95.2,150.970011 C95.2,146.195085 93.5631822,141.802888 90.8206281,138.325102 L95.9300867,132.629347 Z M90.4232422,132.777747 L88.0781672,135.383709 C87.5447213,134.927135 87.0133024,134.513085 86.4839105,134.141559 C85.9545186,133.770032 85.3461977,133.388884 84.6589478,132.998112 L90.4232422,132.777747 Z" id="Shoes" fill="#474961"></path>
                <path d="M60.8871558,2.43849663 C92.2483594,5.06866464 109.337585,6.90041493 112.154833,7.93374747 C113.502385,8.42801363 115.215417,9.2730166 115.492333,9.63449085 C130.484258,18.1528424 122.960531,34.0028287 122.07113,35.4457923 L122.046239,35.4850863 L121.832315,35.5639293 C120.230273,40.1140886 117.759977,45.150581 115.469111,49.4075227 C114.688701,55.1355173 114.150816,60.348397 113.797662,65.6738832 L105.806291,65.6730986 C105.023563,66.9666841 104.220655,68.303467 103.400154,69.6757578 L113.544264,69.6768099 C113.438274,71.1909937 113.317247,72.7890281 113.198542,74.5201588 C112.709308,81.0352687 114.998184,92.1628281 117.515716,102.604324 L90.394066,132.779559 L84.5304773,133.015563 C81.6383711,131.441316 78.3235058,130.547012 74.8,130.547012 C72.655257,130.547012 70.5878175,130.878361 68.6459713,131.492715 C68.2057603,130.817443 67.9451406,130.015662 67.935066,129.158339 L67.939631,128.899547 L68.2949975,121.450184 C67.2950705,121.293103 66.2066042,120.802108 65.1563951,120.225183 C53.5564704,115.377007 45.0272705,111.130669 39.5687952,107.486169 C35.6147382,104.846134 30.0251398,99.6656715 22.8,91.9447797 C20.584049,89.0291233 19.9355237,86.8123617 20.8544241,85.294495 L64.7804001,51.1230229 C50.8103249,51.5755787 39.7850862,51.6355374 31.7046842,51.3028991 C15.1181998,50.6200989 5.75639509,45.5364053 1.23639509,33.4828315 C-1.04360491,27.3959769 0.41768352,21.5012623 0.996395086,18.8263264 C4.75639509,1.4467548 24.6524198,0.125851528 28.178552,0.00542379496 C30.5293068,-0.0748613602 41.4321747,0.736162917 60.8871558,2.43849663 Z M118.672281,107.306187 C121.128124,117.127203 123.433521,125.539682 123.251348,127.686396 C123.096701,129.941675 121.202953,131.700095 118.971954,131.768539 L118.761852,131.769968 L116.400815,131.731124 L95.977066,132.553559 L118.672281,107.306187 Z" fill="#FF7058"></path>
                <path d="M113.609502,69.5952301 C113.503511,71.1094139 113.382485,72.7074483 113.263779,74.438579 C112.774545,80.9536889 115.063422,92.0812483 117.580953,102.522744 L90.4593033,132.69798 L84.5957146,132.933983 C81.7036083,131.359736 78.3887431,130.465433 74.8652373,130.465433 C72.7204942,130.465433 70.6530547,130.796781 68.7112085,131.411135 C68.2709975,130.735863 68.0103778,129.934082 68.0003033,129.076759 L68.0048682,128.817967 L68.3559024,121.459353 C69.5039914,121.624598 70.5310763,121.33971 71.2431138,120.225183 C73.9563732,115.97344 76.1461001,113.880718 80.3563951,107.486169 C88.2702377,95.4190883 96.4940987,81.2241323 103.448388,69.5950931 L113.609502,69.5952301 Z M118.737519,107.224607 C121.193361,117.045623 123.498758,125.458102 123.316585,127.604816 C123.161938,129.860095 121.26819,131.618515 119.037191,131.686959 L118.82709,131.688388 L116.466053,131.649545 L96.0423033,132.47198 L118.737519,107.224607 Z M113.862899,65.5923035 L105.855645,65.5915463 C107.288538,63.2242191 108.653472,61.0025149 109.93452,58.973763 C110.606043,57.8949841 112.96855,54.0647762 115.542764,49.2705045 C114.757464,55.0197922 114.21721,60.2493752 113.862899,65.5923035 Z" id="Shadow-Leg" fill="#444444" opacity="0.176985679"></path>
                <path d="M66.2257444,51.5322545 L74.6499632,40.9445502 C74.9252448,40.5985715 74.8682493,40.0946889 74.5226602,39.8190969 C74.1770711,39.5435049 73.6737559,39.6005646 73.3984743,39.9465434 L64.9742556,50.5342477 C64.6989739,50.8802264 64.7559694,51.384109 65.1015585,51.659701 C65.4471476,51.935293 65.9504628,51.8782333 66.2257444,51.5322545 Z" id="Shadow" fill="#324A5E"></path>
            </g>
            <g id="Body" transform="translate(163.377929, 64.652514) rotate(5.000000) translate(-163.377929, -64.652514) translate(104.877929, 5.152514)">
                <path d="M44.0752638,39.6641967 L53.1949341,40.9855388 C62.9110006,42.3068386 70.0840203,49.9462911 71.1957381,59.1149752 C76.5828423,64.9402925 74.0127023,72.3761165 72.0778792,76.1866222 C72.52403,76.2055874 72.9284261,76.4930416 73.0830149,76.9192105 L73.1188256,77.0387801 L73.236382,77.5314533 C73.4115007,78.1120767 73.0901767,78.7198787 72.5424608,78.9148017 L72.4299791,78.9481509 L68.9625541,79.8616976 L67.8853288,87.454852 L67.8106187,87.850289 L65.0419201,107.586223 L64.5045169,111.438365 C64.476627,111.757507 64.3775133,111.634338 64.3097757,111.94999 C64.2385519,112.305534 16.8302513,118.477964 16.3784685,117.67463 C16.3819547,117.634738 16.3421069,117.631248 16.3455931,117.591355 C16.1707578,117.294655 15.9994087,116.958063 15.8280596,116.62147 C14.022915,112.925933 13.1935355,108.632493 13.8161075,104.265236 L17.4645541,78.4456976 L6.88151307,74.7975828 C5.83821145,74.4364722 5.28342073,73.2989822 5.64118263,72.2545276 L5.64249395,72.2507149 C5.98338826,71.2555086 7.03180027,70.7042474 8.03316788,70.9643372 L8.18292586,71.0094817 C8.18336319,71.0096321 8.18380046,71.0097827 8.18378569,71.0112446 L8.24167743,71.0323542 C6.95760061,66.5994305 5.74563629,57.9264776 13.8844882,53.4108127 C16.9364578,48.3782105 19.9481185,44.4206982 24.9393124,41.8386228 C29.4901938,39.5284845 34.1709752,39.3094361 37.8772775,39.7149965 C39.8812207,39.3977807 41.9645545,39.3683059 44.0752638,39.6641967 Z" id="T-shirt" fill="#3ABF7C"></path>
                <path d="M74.456861,67.3948094 C74.4513131,70.8968535 73.110561,74.1518841 72.0032727,76.2128596 C72.4743121,76.1789752 72.896547,76.420212 73.0560835,76.8655759 L73.090371,76.9811285 L73.236567,77.6672337 C73.4233603,78.2865654 72.9821959,78.8320087 72.367048,78.9791198 C70.8734801,79.3205056 69.6952317,79.5959777 68.8323028,79.8055362 L70.8995659,65.2519449 L71.0021658,64.5373663 C71.2799799,62.646232 71.2949053,60.7779705 71.0739647,58.969364 C73.6043462,61.6096087 74.4613173,64.5818913 74.456861,67.3948094 Z" id="Shadow-T-shirt" fill="#444444" opacity="0.176985679"></path>
                <path d="M10.4968041,75.8245758 L39.6788067,85.8853151 C38.9065193,87.4485906 38.1681717,88.9390009 37.5185638,90.2379398 C45.5112361,90.8312849 57.0342545,91.642686 67.0671453,92.7177386 L67.7577898,87.7822103 L67.8324999,87.3867733 L68.9122332,79.7815723 L71.6593996,79.1375723 L75.3562923,91.2599654 C85.6305443,94.0442285 93.4390444,96.214546 98.7817925,97.7709178 C101.194212,98.4736689 102.706688,99.0719831 103.319219,99.5658603 C107.072081,100.163306 111.230211,101.380407 115.792365,103.216505 C116.057674,103.323282 116.245802,103.563568 116.285802,103.846747 C116.342843,104.250569 116.087734,104.626497 115.704066,104.730561 L115.605577,104.750772 L98.5343527,107.16177 L64.2721974,112.144623 C41.7096681,115.311074 27.1522786,117.283421 20.6000291,118.061664 L20.3772623,118.088026 C18.6401624,118.5482 12.7025468,119.280884 6.34604072,116.774698 C5.54711185,116.459704 3.97837973,115.461079 2.54875529,114.148459 C1.59567233,113.27338 0.848279526,111.320752 0.306576888,108.290575 C-0.522504395,103.37311 2.6391251,95.3495316 8.03355308,81.8343508 C8.87852636,79.7366563 9.69986518,77.7312443 10.4968041,75.8245758 Z M53.6108082,0.921137644 C54.9482018,0.603008641 62.4600156,-0.738297879 67.0852853,4.40391975 C67.5255979,4.8477307 67.8897012,5.33841467 68.2607769,5.90888407 C69.139903,7.23881596 69.6379822,8.803113 69.6977358,10.4058018 L69.6977358,10.4058018 L70.0428365,17.5710284 C70.0657408,18.2925874 70.0487974,19.0176365 69.9920061,19.7461758 C69.0888558,28.7090519 65.7604997,35.1910751 62.4376892,35.7634976 C62.0426975,35.8382919 59.8978894,36.1065459 57.3282129,35.6482499 C57.1220015,35.5859153 57.2918513,35.6916328 53.8295916,34.6683467 C53.6432826,34.6171666 53.4622404,34.566774 53.2863234,34.5171815 L52.0536221,41.7710754 C51.884034,42.767802 50.9972492,43.4812012 49.9873304,43.4333672 C47.7092483,43.3254564 46.1179691,43.148522 45.2134927,42.9025642 C43.4193538,42.414677 42.0256388,41.7999194 41.0323475,41.0582914 C40.5491483,40.697517 40.3098387,40.0957078 40.4133123,39.5016263 L40.4133123,39.5016263 L41.9129685,30.8940107 L42.5169183,27.3489389 L42.973134,23.8502007 C42.6387798,23.65735 42.3003538,23.4185041 41.9794989,23.1242711 C40.6221995,21.8362211 39.7156693,16.2074969 40.2516455,14.070253 C40.7980805,12.0526872 48.6765104,14.2970953 48.5928409,13.3396702 C48.5370612,12.7013868 48.2794174,9.29371854 47.8199094,3.11666541 C47.7641298,2.47838201 48.23683,1.91440467 48.8743946,1.85856211 C50.308915,1.73291635 51.6532811,1.49457277 53.136121,1.00291228 C53.2955121,0.988951637 53.451417,0.935098285 53.6108082,0.921137644 Z" id="Skin" fill="#F2A98A"></path>
                <path d="M67.0852853,4.40391975 C67.3116185,4.65041449 67.5406202,4.91470212 67.7722905,5.19678263 C66.6101935,5.96171309 65.6763254,6.44207762 64.9706859,6.63787621 C62.0343953,7.4980289 59.4024543,7.24617675 57.7667081,6.90707061 C57.4120519,7.90288746 56.8686155,9.03583325 56.1224539,10.1463371 C54.0893166,13.3764884 51.4120741,15.1778347 49.638362,16.1285363 C49.1146715,15.6794139 48.2172404,14.945234 47.313909,14.376909 C47.1873931,14.3075941 46.3017824,13.8223895 45.2189196,13.8368384 C43.2922809,13.8447952 41.4358545,15.575119 40.8894195,17.5926848 C40.3101093,19.6935261 41.1359303,21.79189 42.4498957,23.0435374 C43.61713,24.1554128 45.0614828,24.4499793 45.7120447,24.5564383 C45.7444573,24.8218712 45.7793325,25.0921409 45.8161187,25.3650296 L47.1128917,32.479004 L47.0112799,32.4838521 C47.013725,32.4922174 47.014503,32.4961511 47.014503,32.4961511 C47.014503,32.4961511 47.0081313,32.4921955 46.9956733,32.4844165 C38.8921767,32.8576083 33.2101337,30.6830525 29.3518184,29.3917881 C28.6792125,29.1679262 27.8908677,28.8198095 27.3977081,28.041248 C26.7144421,26.9755538 27.0003633,25.663256 27.3760075,24.0736083 C27.6093892,23.1200993 28.0180292,21.7319527 28.8719851,20.1990964 C29.6899765,18.8007748 30.7619634,16.7199842 32.13303,13.9076431 C32.0222501,11.7300141 32.3242173,8.91773356 34.0732423,6.40964132 C35.1102963,4.95207446 36.3625212,4.11883036 36.8959866,3.79071913 C39.8283033,1.96616103 42.2455612,2.51820312 48.28848,1.82812794 C49.5202752,1.68004027 54.6394694,0.731823796 54.7988605,0.717863156 L54.95265,0.683555739 C56.5798336,0.341488991 62.8646268,-0.39151443 67.0852853,4.40391975 Z M70.0412363,18.1342528 C70.3903552,19.1066089 70.7126591,19.910762 71.1414911,20.7549126 C71.6459993,21.7960851 72.4594316,23.6116792 73.5817879,26.2016949 C74.3367735,27.976363 74.5100605,29.2107545 74.1016491,29.9048695 C73.6692135,30.6657263 67.3154504,32.1133497 66.7192863,32.1248013 L66.3955389,32.1337035 C68.096487,29.274821 69.4541671,24.8815675 69.9823582,19.6397921 C70.0107538,19.2755225 70.0291874,18.9121254 70.0376592,18.5496008 L70.0412363,18.1342528 Z M62.6002285,15.0314747 C62.9477434,15.2767679 62.8387936,15.77142 62.4493471,15.89293 C61.6704542,16.1359499 60.4100095,16.3893744 59.2585148,16.1481467 C57.4098394,15.77895 59.0954504,14.5949435 60.7348286,14.502975 C61.5744081,14.4548978 62.2087515,14.7505415 62.6002285,15.0314747 Z M71.2836313,14.5288313 C71.5913654,14.7783105 71.4824156,15.2729626 71.0929691,15.3944725 C70.3140761,15.6374925 69.0494504,15.8510912 67.9816985,15.6413176 C66.128842,15.232295 67.8186341,14.0881143 69.4580123,13.9961458 C70.2578109,13.9522545 70.8921543,14.2478982 71.2836313,14.5288313 Z" id="Hair" fill="#324A5E"></path>
                <path d="M62.9280777,18.3599132 C63.3801211,19.6008495 62.3434275,21.60242 61.7112347,20.9441589 C61.2590712,20.468283 61.221561,19.344791 61.2698243,18.6551961 C61.2992124,18.1689157 61.6552098,17.7288 62.1367614,17.7183955 C62.4550084,17.6849086 62.7501991,17.8149106 62.9280777,18.3599132 Z M69.3688103,17.9715475 C69.8208537,19.2124838 68.7841601,21.2140543 68.1519673,20.5557932 C67.7395847,20.0757314 67.6622937,18.9564253 67.7105569,18.2668304 C67.739945,17.78055 68.0959424,17.3404343 68.577494,17.3300298 C68.895741,17.2965429 69.1909317,17.4265449 69.3688103,17.9715475 Z" id="Eyes" fill="#324A5E"></path>
                <path d="M64.6385043,26.6901321 C64.3585102,26.6100757 63.6785253,26.4099324 63.5585801,25.9294112 C63.5585894,25.849322 63.518603,25.7291929 63.5586129,25.649099 C63.7186477,25.3687681 64.2386353,25.5288855 64.9586348,25.6088903 C66.2386412,25.6888295 67.2786634,25.6086184 67.2786634,25.6086184 C67.2786634,25.6086184 66.9585657,26.409548 66.7585351,26.6498391 C66.3584598,27.250555 65.0784956,26.8102144 64.6385043,26.6901321 Z" id="Mouth" fill="#324A5E" transform="translate(65.409744, 26.224402) rotate(-6.000000) translate(-65.409744, -26.224402) "></path>
                <path d="M66.0934588,22.9637627 C66.0868484,22.9627043 66.0453636,22.9656525 66.0038073,22.968359 C65.6049127,22.9943378 65.3097226,22.9983592 64.2392184,22.9983592 C64.0183045,22.9983592 63.8392184,23.1776472 63.8392184,23.3988102 C63.8392184,23.6199731 64.0183045,23.7992599 64.2392184,23.7992599 C65.3289919,23.7992599 65.6326855,23.7951239 66.0557405,23.7675715 C66.1004399,23.7646604 66.1450661,23.7614889 66.189897,23.7580365 C66.6604784,23.6811022 66.9592184,23.2752123 66.9592184,22.8381788 L66.9562984,22.7898811 L66.4396289,18.5324989 L66.4791609,16.1974792 C66.4829047,15.976348 66.3068792,15.7940474 66.0859971,15.7902995 C65.8651149,15.7865515 65.6830196,15.9627754 65.6792758,16.1839066 L65.6392758,18.5465672 L65.6421383,18.6016513 L66.1583404,22.8551816 C66.1523094,22.9137293 66.1165625,22.9599077 66.0934588,22.9637627 Z" id="Nose" fill="#324A5E" transform="translate(65.399218, 19.794750) rotate(-6.000000) translate(-65.399218, -19.794750) "></path>
                <polygon id="Shadow" fill="#482D1F" transform="translate(51.383812, 36.166043) rotate(-5.000000) translate(-51.383812, -36.166043) " points="52.3667739 38.8886505 49.0638566 33.4434349 53.7037671 34.7644576"></polygon>
                <path d="M71.6593996,79.1375723 L75.3562923,91.2599654 C85.6305443,94.0442285 93.4390444,96.214546 98.7817925,97.7709178 C101.898309,98.6787762 103.637742,99.394282 103.235712,99.8217974 L102.706027,99.7377745 C100.151047,99.3510272 97.7853887,99.2543087 95.6090555,99.4476031 L96.0617757,99.4118958 C90.5852108,97.8027205 86.0234944,96.5682469 82.3766265,95.7084752 C79.2830238,94.9791391 75.7703039,94.2676857 71.8384666,93.574115 L71.1187682,93.4346197 C71.0363594,93.4245819 70.9537815,93.4145645 70.8710378,93.4045675 C69.9632704,93.2483653 69.0342115,93.0927287 68.083654,92.9379236 L67.1259226,92.7834056 L67.1959226,91.7835723 L67.7577898,87.7822103 L67.8324999,87.3867733 L68.9119226,79.7815723 L71.6593996,79.1375723 Z" id="Shadow-Arm" fill="#8C2A00" opacity="0.2"></path>
                <path d="M37.1453228,89.6868668 C37.4227799,89.5055403 37.7945785,89.583748 37.9757582,89.8615486 C38.1569379,90.1393493 38.0788896,90.5115453 37.8014325,90.6928718 L37.8014325,90.6928718 L30.6021936,95.3977896 C30.3247365,95.5791161 29.9529379,95.5009084 29.7717582,95.2231078 C29.5905785,94.9453072 29.6686268,94.5731111 29.9460839,94.3917846 L29.9460839,94.3917846 Z M48.5966968,63.7944929 C48.8964074,63.6529192 49.2539641,63.7813619 49.3953221,64.0813775 C49.5278941,64.3627459 49.5950594,64.5116647 49.718035,64.8144775 C49.9088991,65.2844577 50.0904482,65.7986795 50.2536799,66.3557497 C51.2972948,69.9173549 51.1997463,73.5748826 49.26438,76.8884413 C47.7598229,79.5029156 45.6784363,81.0817632 43.3200413,82.1229276 C44.4552614,82.9356274 44.9599904,84.3883648 44.4377543,85.6809445 C43.8178968,87.2151457 42.0005692,87.9066268 40.4109247,87.2639202 L40.4109247,87.2639202 L39.0584419,86.7752479 C38.7467895,86.6626432 38.5855534,86.3184386 38.6983108,86.0064453 C38.8110682,85.694452 39.1551202,85.5328157 39.4667726,85.6454203 L39.4667726,85.6454203 L40.8401074,86.142069 C41.8544177,86.5518769 42.9618756,86.1304908 43.3251263,85.2314136 C43.688377,84.3323365 43.1844579,83.2599118 42.1701477,82.8501038 C41.862906,82.7259701 41.7145811,82.3759905 41.8388547,82.0684024 C41.893934,81.9320763 41.993317,81.8269577 42.1136616,81.7629701 C42.0996419,81.5158806 42.2417617,81.2740308 42.4848778,81.1736569 C44.7760988,80.2276943 46.7971063,78.7694731 48.2265521,76.2855448 C49.9723492,73.2965271 50.0611539,69.9668426 49.1021852,66.6941143 C48.9507886,66.1774344 48.7826015,65.7010595 48.6063739,65.26712 C48.4936814,64.989628 48.4338839,64.8570452 48.309974,64.594061 C48.168616,64.2940454 48.2969862,63.9360665 48.5966968,63.7944929 Z" id="Shadow" fill="#324A5E"></path>
            </g>
        </g>
    </g>
</svg>