<?xml version="1.0" encoding="UTF-8"?>
<svg width="101px" height="112px" viewBox="0 0 101 112" version="1.1" xmlns="http://www.w3.org/2000/svg" xmlns:xlink="http://www.w3.org/1999/xlink">
    <!-- Generator: Sketch 62 (91390) - https://sketch.com -->
    <title>girl</title>
    <desc>Created with Sketch.</desc>
    <defs>
        <path d="M8.44354023,25.9631836 C10.4264876,26.8072119 13.1509124,27.8849277 16.6168145,29.196331 C17.3176755,29.5472733 17.8267904,30.0103571 18.1921091,30.3973715 C18.7665334,30.4313505 23.28773,31.1474911 27.5394052,31.7943235 L27.442204,31.7793615 C27.4505572,30.6619941 27.6236562,28.953633 28.4651469,27.0869635 L28.4651469,27.0869635 L28.4361695,27.2361388 C28.2636375,28.1614906 28.2564569,29.1367108 28.4414346,30.1223634 L28.4414346,30.1223634 L28.8006713,31.9852513 C31.3303937,32.3660047 33.6042615,32.6932752 34.6712793,32.7975669 C34.7284836,32.6196755 35.166168,30.5249506 35.9843325,26.5133922 L35.9843325,26.5133922 L44.2337919,28.7142749 L44.2034083,28.9126266 C44.0180354,30.0731742 43.6082741,31.8551438 42.9741242,34.2585354 C41.9669451,38.0756868 41.6020095,40.9195836 38.8084925,41.7995251 C38.1573656,42.0054859 37.3083957,41.990173 35.4167011,41.5607507 C33.6349553,41.1561742 31.9785464,40.7060533 30.3845907,40.228789 L30.3845907,40.228789 L31.6008441,46.5306996 L31.6064052,46.530095 L31.603613,46.5495273 L16.4927955,46.599583 L16.4230393,46.5968973 C15.7542122,46.5522517 16.696971,45.9839301 19.2513157,44.8919323 C21.8880587,43.7647089 24.5789004,42.7983392 27.3238409,41.9928234 L27.3238409,41.9928234 L27.3591602,39.2764406 L27.5601079,39.3413606 C27.3268326,39.2652023 27.0941206,39.1886762 26.8617539,39.111846 C24.621945,38.3712703 22.4169386,37.6147744 20.023803,36.7731847 C19.2176049,36.4979696 18.8713901,36.3593581 18.292302,36.1374206 C16.4058368,35.4079103 9.30528885,32.601975 8.96302276,32.3351551 C7.76631904,31.8391968 8.47091993,27.5317652 8.44354023,25.9631836 Z M31.766898,7.21823431 L31.9321882,7.23221579 C32.4556072,7.35804912 32.9239294,7.26017875 33.4198,7.24619727 C33.6401869,7.24619727 33.8192513,7.42795653 33.8330255,7.65166023 L33.9018964,11.2309195 C33.9156706,11.566475 34.856588,10.7839707 35.228491,10.7560078 C35.8896518,10.7000818 36.6291846,11.7342528 36.8771199,12.4193454 C37.1526035,13.1603639 36.9322166,13.9153639 36.5052169,14.4047158 L36.4219125,14.4870855 L36.4304096,14.5524869 C36.766524,17.4885905 36.9453896,18.9712722 36.9670063,19.0005318 C36.989395,19.0308365 35.7461705,19.3264135 33.2373328,19.8872628 L32.9944406,18.7373803 C32.9359387,18.7607403 32.8757198,18.7845737 32.8137359,18.8088825 C31.6567046,19.2842528 31.7255755,19.2423084 31.6429304,19.2702713 C30.7751569,19.5079565 30.031351,19.493975 29.8936092,19.4799936 C28.7365778,19.3961047 27.3867079,17.256938 26.7806438,14.1670306 C26.7255471,13.9153639 26.7117729,13.6636973 26.6842246,13.4120306 L26.5740311,10.9093454 C26.5464827,10.3500862 26.6566762,9.7908269 26.9183857,9.30147505 C27.0285791,9.09175283 27.1387726,8.89601209 27.2627402,8.74221579 C28.6814811,6.81277135 31.2985758,7.16230838 31.766898,7.21823431 Z" id="path-1"></path>
    </defs>
    <g id="girl" stroke="none" stroke-width="1" fill="none" fill-rule="evenodd">
        <g id="Group-14">
            <g id="Group-13" transform="translate(0.000000, 21.000000)" fill-rule="nonzero">
                <g id="Group-10" transform="translate(19.500000, 14.000000) scale(-1, 1) translate(-19.500000, -14.000000) translate(0.500000, 0.000000)">
                    <polyline id="Path" fill="#3D5A74" points="0 27.552 9.53558834 7.25794373 18.4840099 27.552 27.2445381 0 37.884 27.552"></polyline>
                    <polygon id="Path" fill="#FFFFFF" points="27.2445381 0 24.024 10.0024615 26.0037143 8.27668472 27.4328571 10.836 28.7565714 8.17102492 30.9596779 9.61741205"></polygon>
                    <polygon id="Path" fill="#FFFFFF" points="9.49985047 7.224 4.872 17.0508245 7.392 15.2758837 9.33499065 18.144 11.3015327 15.158338 13.692 16.7216964"></polygon>
                </g>
            </g>
            <g id="Group-12" transform="translate(60.000000, 56.000000) scale(-1, 1) translate(-60.000000, -56.000000) translate(20.000000, 0.000000)">
                <g id="Interior-/-Chair-/-Chair-1" transform="translate(31.407407, 73.850000) scale(-1, 1) translate(-31.407407, -73.850000) translate(8.592593, 37.800000)" fill="#D8DEED">
                    <g id="Chair-">
                        <path d="M44.8748098,0.0103405524 L44.9679311,0.0139728682 L45.036858,0.0279457364 C45.3677073,0.0698643411 45.6020589,0.419186047 45.5607027,0.768507752 L45.5607027,0.768507752 L40.6393197,40.9544767 C40.6359611,40.9774558 40.6316819,40.9999682 40.626532,41.0219763 L40.6255343,41.0522868 C40.6255343,41.3876357 40.3360412,41.667093 40.0051919,41.667093 L40.0051919,41.667093 L29.596796,41.6668079 L33.2641379,48.4858527 C34.5737496,50.9171318 35.879915,53.3449176 37.1843572,55.7727035 L41.0942374,63.0595543 L45.4090634,71.0799806 C45.5607027,71.359438 45.4366342,71.7227326 45.1471411,71.890407 L45.1471411,71.890407 L45.0919996,71.9183527 C44.8025064,72.0860271 44.430301,71.9882171 44.2924471,71.7227326 L44.2924471,71.7227326 L28.1497594,41.667093 L28.1497594,41.667093 L17.3971579,41.667093 L1.25447018,71.7227326 C1.11661631,71.9882171 0.744410876,72.0720543 0.454917758,71.9183527 L0.454917758,71.9183527 L0.399776211,71.890407 C0.110283093,71.7227326 -0.0137853866,71.359438 0.137853866,71.0799806 L0.137853866,71.0799806 L4.45267987,63.0595543 C7.07190332,58.1969961 9.67734139,53.3484109 12.2827795,48.4858527 L12.2827795,48.4858527 L15.948796,41.6668079 L2.15052031,41.667093 C1.83721607,41.667093 1.58087623,41.4361365 1.53685828,41.1421919 L1.53017791,41.0522868 L1.53017791,40.9824225 C1.53017791,40.6470736 1.81967103,40.3676163 2.15052031,40.3676163 L2.15052031,40.3676163 L39.407796,40.3668079 L40.5703927,30.8381202 C40.970169,27.5964147 41.3664988,24.3512161 41.7628287,21.1042708 L42.9552646,11.3599419 L44.2648764,0.62877907 C44.3062325,0.251511628 44.6232964,-0.0279457364 44.9679311,0.0139728682 Z" id="Combined-Shape" fill-rule="nonzero"></path>
                    </g>
                </g>
                <g id="Woman-sitting-/-8">
                    <g id="Woman" transform="translate(0.148337, 0.565741)">
                        <g id="Legs" transform="translate(14.394310, 57.254531)" fill-rule="nonzero">
                            <path d="M12.8993852,33.1068578 L21.1914433,39.2167652 C21.6459913,40.7826911 22.1143135,42.348617 22.5826357,43.9285244 C22.830571,44.7534318 23.0785063,45.5643578 23.3264416,46.3752837 C24.0977958,46.6828763 24.7589566,46.9625059 25.2272788,47.1722281 C26.1226007,47.5637096 26.8801808,47.9272281 27.7066317,48.4725059 C27.7066317,48.4725059 28.4228893,48.9199133 28.8223406,49.5630615 C28.9463082,49.7727837 29.0565017,50.0104689 29.1253726,50.2621356 C29.1529209,50.3739874 29.1529209,50.4858393 29.1666951,50.5837096 C29.1623807,50.6756767 29.1418494,50.7786177 29.1156836,50.876635 C29.0313246,50.8329211 28.9365328,50.8084662 28.837152,50.8084662 L28.837152,50.8084662 L21.3880029,50.8082837 L7.7210602,40.4718578 L12.8993852,33.1068578 Z M42.6751724,42.1016899 C43.9479272,42.9461235 44.7758085,43.5560566 45.1588162,43.9314893 C45.7333278,44.4946383 46.3484344,45.0151172 47.0174275,45.4647233 C48.6339803,46.5407869 49.4740775,46.5259022 51.9326507,47.698916 C52.5992398,48.0087286 53.239006,48.3609673 53.8657212,48.755388 C54.4924364,49.1498087 54.7067102,49.5934878 54.8835141,50.2615686 C54.9129814,50.3729154 54.9149045,50.4847502 54.9303594,50.5823617 C54.9323374,50.6956823 54.9263543,50.7855952 54.914176,50.858468 C54.8660972,50.8426084 54.8160752,50.8364292 54.7646099,50.8364292 L54.7646099,50.8364292 L32.6068324,50.8364292 C32.5619616,50.8364292 32.5181879,50.8411263 32.4759762,50.8500558 L32.2608319,42.132389 L42.6751724,42.1016899 Z" id="Shoes" fill="#3D5A74"></path>
                            <path d="M7.68934182,40.3921464 L7.77538914,40.4471356 L21.4558365,50.7932493 L28.9049857,50.7934318 C29.2180353,50.7934318 29.4855504,51.0360857 29.5316023,51.3428169 L29.5385981,51.43658 L29.5316023,51.5303431 C29.4906673,51.8029931 29.274749,52.025014 29.0074077,52.0709859 L28.9049857,52.0797281 L21.2603142,52.0797281 C21.1172058,52.0797281 20.9859921,52.0314332 20.8805143,51.9488927 L20.8470887,51.9259318 L7.01780908,41.4677837 C6.76987379,41.2790337 6.70045191,40.9317337 6.83966757,40.6603112 L6.89384144,40.5729689 L6.96129361,40.4958331 C7.15490352,40.3082575 7.45165452,40.2665368 7.68934182,40.3921464 Z M54.8324436,50.8213948 C55.1799227,50.8213948 55.4616102,51.1030823 55.4616102,51.4505615 C55.4616102,51.7980406 55.1799227,52.0797281 54.8324436,52.0797281 L32.674666,52.0797281 C32.3271869,52.0797281 32.0454994,51.7980406 32.0454994,51.4505615 C32.0454994,51.1030823 32.3271869,50.8213948 32.674666,50.8213948 L54.8324436,50.8213948 Z" id="Base" fill="#FF5645"></path>
                            <path d="M38.0923656,0.0020491109 C38.1474624,-0.0259138521 44.0897847,0.225752815 45.68759,1.16251207 C48.7475508,2.98233445 50.3569467,8.71630539 47.338417,15.2662995 L47.3407012,15.2502416 C46.3117857,20.7267291 45.8897686,28.7653489 46.8974607,33.8232528 C46.8974607,33.8232528 47.9426991,42.5057528 47.2104439,42.5616787 C47.0329274,42.5756602 45.1444859,42.6595491 44.9447799,42.6735306 C39.9743198,43.0090861 31.3425834,43.6801973 30.0555892,43.6801973 C29.1975932,43.6801973 28.7685951,43.120938 28.7685951,42.0024195 L28.4886121,38.9990559 L28.4890779,38.9740878 C27.5396814,40.1240589 26.5541072,41.3163726 25.5323555,42.5510288 C24.0125415,43.0089206 21.7136938,42.3530107 18.6358123,40.5832991 C15.5579308,38.8135875 13.1755685,37.068979 11.4887253,35.3494735 C10.6760485,34.8181772 8.69825939,31.8798269 9.22167834,31.1108454 L9.22167834,31.1108454 L12.6789982,25.9936232 L14.7451257,22.9316787 C15.3236414,22.0648269 15.7603529,21.4901252 16.3801911,20.5813289 C16.3801911,20.5673474 16.4911648,20.4010306 16.4911648,20.3870491 C16.2707778,20.3870491 16.5219953,20.2052899 14.9517384,20.1913084 C13.3814816,20.1773269 4.92413329,19.9955676 1.68720031,15.2558454 C0.395935236,13.3650933 0.296007842,11.2711232 0.199588562,10.3343639 C-0.158540193,6.68985775 0.788650101,3.7363153 3.04115944,1.47373657 C3.64449735,1.0239079 4.08849952,0.757049111 4.37316597,0.673160222 C4.82771401,0.533345407 7.22442182,0.463438 7.69274404,0.435475037 L7.69274404,0.435475037 L17.3071237,0.309641703 C31.1272205,0.12322195 38.0556345,0.0206910862 38.0923656,0.0020491109 Z" fill="#FFCB3D"></path>
                            <path d="M47.3085226,15.3205657 L47.316301,15.2743696 C46.2873854,20.7508572 45.8653683,28.789477 46.8730604,33.8473809 C46.8730604,33.8473809 47.9182989,42.5298809 47.1860436,42.5858068 C47.0085272,42.5997883 45.1200856,42.6836772 44.9203796,42.6976587 C39.9499196,43.0332142 31.3181831,43.7043253 30.031189,43.7043253 C29.1731929,43.7043253 28.7441948,43.1450661 28.7441948,42.0265475 L28.4653185,39.0272712 C40.3313588,24.6541822 46.542135,16.9000515 47.0976472,15.7648791 C47.1703162,15.6163821 47.2405959,15.4682658 47.3085226,15.3205657 Z" id="Shadow-Leg" fill="#8C2A00" opacity="0.2"></path>
                            <path d="M22.738509,11.060985 C22.0589038,12.10443 21.3431929,13.118248 19.6054026,15.5312391 C17.8617682,17.9523452 17.1438163,18.9693374 16.4574817,20.0231146 C16.3735753,20.1519418 16.4084425,20.3254201 16.5353596,20.4105892 C16.6622767,20.4957583 16.8331829,20.4603664 16.9170892,20.3315392 C17.5966944,19.2880941 18.3124054,18.2742762 20.0501957,15.861285 C21.7938301,13.440179 22.511782,12.4231867 23.1981166,11.3694096 C23.282023,11.2405823 23.2471558,11.0671041 23.1202387,10.981935 C22.9933216,10.8967659 22.8224154,10.9321578 22.738509,11.060985 Z" id="Shadow" fill="#482D1F"></path>
                        </g>
                        <g id="Body" transform="translate(39.586442, 39.683701) rotate(38.000000) translate(-39.586442, -39.683701) translate(12.919775, 10.683701)">
                            <g id="Brush" transform="translate(35.669836, 4.194444)" fill-rule="nonzero">
                                <path d="M2.86177345,6.25270998 C3.4553657,6.25270998 3.9365673,6.73391157 3.9365673,7.32750383 C3.9365673,7.3364376 3.93645591,7.34537103 3.93623316,7.35430203 L3.7088306,16.4718863 C3.69736795,16.9314755 3.32150554,17.2980803 2.86177345,17.2980803 C2.40204135,17.2980803 2.02617895,16.9314755 2.01471629,16.4718863 L1.78731373,7.35430203 C1.77251349,6.76089432 2.24156753,6.26784435 2.83497524,6.25304411 C2.84390624,6.25282136 2.85283967,6.25270998 2.86177345,6.25270998 Z" id="Rectangle" fill="#474961"></path>
                                <path d="M2.81440278,8.13312021 C4.33585701,8.13312021 5.56923935,6.90610156 5.56923935,5.39249735 C5.56923935,4.66489247 4.36055218,4.1070575 3.40566152,2.61518637 C3.18292298,2.26719133 3.00041224,1.56452962 2.85812932,0.507201233 L2.8580065,0.507217761 C2.84770377,0.430656438 2.77728654,0.376943236 2.70072522,0.387245966 C2.66291414,0.39233414 2.62882218,0.412646307 2.6063482,0.443476285 C0.908493537,2.77260632 0.0595662057,4.42228 0.0595662057,5.39249735 C0.0595662057,6.90610156 1.29294855,8.13312021 2.81440278,8.13312021 Z" id="Oval" fill="#F2F6FB"></path>
                                <path d="M2.82370749,5.9965708 C3.18201317,5.9965708 3.56000138,4.9612924 3.85051021,5.11583745 C4.82441276,5.63393467 5.64741498,6.72603895 5.64741498,5.50041092 C5.64741498,4.73549297 4.40851063,4.14905108 3.4297477,2.58067373 C3.20079979,2.21380582 3.01331722,1.47198693 2.86729997,0.355217056 L2.86740203,0.355203712 C2.85737044,0.278480037 2.7870414,0.224415422 2.71031772,0.234447014 C2.67167266,0.239499841 2.63687883,0.260421744 2.61429569,0.292186085 C0.871431897,2.74361317 0,4.47968811 0,5.50041092 C0,6.41576958 0.578053766,6.43238482 1.31628037,5.9965708 C1.57431869,5.84423719 1.5178147,5.44063754 1.79690476,5.11583745 C2.10736293,4.75453172 2.47489204,5.9965708 2.82370749,5.9965708 Z" id="Paint" fill="#FFD05B"></path>
                            </g>
                            <path d="M21.5250531,25.7406627 L21.5893701,25.7469743 L25.6228385,26.6172173 C25.7733509,26.6496912 25.8694003,26.797601 25.8378416,26.9483079 L25.8378416,26.9483079 L25.5745939,28.206839 C28.9985338,29.4133896 31.1669612,32.9806786 30.5270006,36.7527089 L30.5270006,36.7527089 L27.6519968,53.2325632 L11.7447492,53.5217243 C10.8341331,53.3558163 10.1920104,52.9689953 9.81838132,52.3612613 C9.25793766,51.4496604 9.41063698,50.2942636 9.48698653,49.8493148 L9.48698653,49.8493148 L12.357887,33.5544487 C13.0741714,29.3800972 16.9823554,26.582828 21.0948152,27.3098923 L20.9778694,27.2907714 L21.2562616,25.9632876 L21.2562616,25.9632876 C21.2892293,25.8104621 21.4382086,25.7143604 21.5893701,25.7469743 Z" id="Shirt" fill="#FF5645" fill-rule="nonzero" transform="translate(20.023828, 39.630748) rotate(-38.000000) translate(-20.023828, -39.630748) "></path>
                            <mask id="mask-2" fill="white">
                                <use xlink:href="#path-1"></use>
                            </mask>
                            <use id="Skin" fill="#DB9E75" fill-rule="nonzero" transform="translate(26.249467, 26.879931) scale(-1, 1) rotate(39.000000) translate(-26.249467, -26.879931) " xlink:href="#path-1"></use>
                            <polygon id="Shadow" fill="#324A5E" fill-rule="nonzero" transform="translate(15.568409, 25.459766) scale(-1, 1) rotate(39.000000) translate(-15.568409, -25.459766) " points="15.1273731 26.3005746 16.251863 24.618958 14.8849542 25.239855"></polygon>
                            <path d="M15.2109294,17.6735737 C15.2486328,17.6708847 15.2854729,17.724321 15.3130856,17.918575 C15.3768735,18.3625361 15.2750442,19.0145324 15.1964526,18.7678505 C15.1377743,18.603844 15.1202524,18.212647 15.11803,17.9745344 C15.1159068,17.8064944 15.1543743,17.6776073 15.2109294,17.6735737 Z M17.6643756,17.5835241 C17.702079,17.5808351 17.7389191,17.6342715 17.7665318,17.8285254 C17.8303197,18.2724865 17.7284904,18.9244828 17.6498988,18.6778009 C17.5912205,18.5137944 17.5784115,18.1222613 17.5714762,17.8844848 C17.569353,17.7164448 17.6078205,17.5875577 17.6643756,17.5835241 Z" id="Eyes" fill="#324A5E" fill-rule="nonzero" transform="translate(16.454246, 18.203947) rotate(-38.000000) translate(-16.454246, -18.203947) "></path>
                            <path d="M17.8600974,20.3698483 C17.9570724,20.3609623 18.1925297,20.3339374 18.2336162,20.2818097 C18.2335227,20.2722819 18.2472493,20.2580819 18.2332889,20.2484625 C18.1775407,20.2195125 17.9974109,20.2326124 17.7478997,20.2404901 C17.3042983,20.2518483 16.9436179,20.2351732 16.9436179,20.2351732 C16.9436179,20.2351732 17.0554884,20.3311843 17.1250568,20.355462 C17.2644741,20.4326009 17.7077015,20.3831316 17.8600974,20.3698483 Z" id="Mouth" fill="#324A5E" fill-rule="nonzero" transform="translate(17.591588, 20.314161) scale(-1, 1) rotate(42.000000) translate(-17.591588, -20.314161) "></path>
                            <path d="M9.90200672,15.6755814 C11.9950084,15.6078938 12.7919368,15.2861152 13.8789012,15.7611752 C14.0765976,15.8488191 14.5429622,16.0623893 14.9674768,16.5301649 C15.2127017,16.79194 15.402635,17.0749335 15.5486712,17.3646718 C16.7435088,17.2414728 17.6361151,17.7864123 18.22649,18.9994904 C19.0150706,20.6198334 18.0898478,22.2020846 16.85017,22.9084821 C16.4049128,24.3144751 14.9903413,25.4034481 13.7676699,25.0931391 C13.5438798,25.0363421 13.3611355,24.9579399 13.218798,24.8583799 C12.6900748,24.5482205 12.3092068,24.0313654 12.076194,23.3078146 C12.3220662,23.2168901 12.6968992,23.0341817 12.9849864,22.6543504 C13.3720349,22.1440426 13.5533379,21.3925055 13.2409133,20.6948449 C12.9574628,20.0236671 12.2418916,19.5291432 11.5845639,19.6195949 C11.2146341,19.6669835 10.9367487,19.8915569 10.8969462,19.9216442 C10.4976171,20.2634208 10.3221994,20.6758138 10.2921557,20.751378 L10.2921557,20.751378 L10.049153,21.5382 L9.98435891,21.4955812 C9.4658683,21.1325608 8.44745362,19.9351947 6.92911487,17.903483 C6.12853295,17.8622319 5.51090083,17.8380676 5.07621852,17.8309901 L5.07621852,17.8309901 L4.87990787,17.8312426 C4.29024614,17.8413261 3.70644544,17.9264694 3.46409363,17.8470657 L3.46409363,17.8470657 L3.52333047,17.973141 C3.47583294,17.9023874 3.45107006,17.8617489 3.45107006,17.8617489 C3.43511955,17.8205829 3.64422843,17.5996139 3.64276496,17.5716893 C4.87970898,15.6447748 7.40351555,15.6385137 7.87412288,15.6698529 L7.87412288,15.6698529 L7.98449055,15.6702913 L8.01193002,15.6674921 L8.01193002,15.6674921 L8.03918655,15.6612023 C8.81387409,15.7046067 9.46110519,15.6846874 9.90200672,15.6755814 Z M4.23208291,21.2449953 C3.84640579,21.3848101 3.40563194,21.3428657 3.14392247,21.3009212 C3.00618064,21.2729583 2.95108391,21.1051805 3.04750319,21.0073101 C3.17147083,20.8954583 3.37808358,20.7556435 3.65356723,20.741662 C4.21830873,20.713699 4.83814696,21.0492546 4.23208291,21.2449953 Z M6.93182276,21.2449953 C6.53237145,21.3848101 6.0915976,21.3428657 5.81611394,21.3009212 C5.67837212,21.2729583 5.62327538,21.1051805 5.73346885,21.0073101 C5.85743649,20.8954583 6.06404924,20.7556435 6.35330708,20.741662 C6.91804857,20.713699 7.5378868,21.063236 6.93182276,21.2449953 Z" id="Hair" fill="#324A5E" fill-rule="nonzero" transform="translate(10.758661, 20.324643) scale(-1, 1) rotate(42.000000) translate(-10.758661, -20.324643) "></path>
                            <path d="M16.1820253,18.0955412 L16.1828043,18.0752219 L16.181685,18.0853527 L16.1820253,18.0955412 Z M16.0175141,19.5712405 L16.016656,19.5868229 C16.016656,19.7394103 16.1195285,19.8811241 16.269495,19.9064947 C16.297013,19.9091906 16.3123803,19.9102979 16.3277727,19.9113143 C16.4734537,19.920934 16.5780319,19.9223785 16.9533004,19.9223785 C17.0293731,19.9223785 17.0910423,19.8597813 17.0910423,19.7825637 C17.0910423,19.7053461 17.0293731,19.6427489 16.9533004,19.6427489 C16.5846674,19.6427489 16.4830173,19.6413448 16.3456562,19.6322745 C16.3313461,19.6313295 16.3170606,19.6303002 16.302704,19.6291792 C16.3058011,19.6291945 16.2942705,19.6129681 16.2923942,19.5923349 L16.4565717,18.1063869 L16.4573508,18.0860677 L16.4298024,17.2611602 C16.4272252,17.183987 16.3635022,17.1235464 16.2874731,17.1261625 C16.2114441,17.1287785 16.1518996,17.1934605 16.1544769,17.2706338 L16.181685,18.0853527 L16.0175141,19.5712405 Z" id="Nose" fill="#324A5E" fill-rule="nonzero" transform="translate(16.553849, 18.524230) scale(-1, 1) rotate(42.000000) translate(-16.553849, -18.524230) "></path>
                            <path d="M18.0111617,32.9428273 L17.8736123,31.8240591 C17.8594779,31.7090961 17.7547003,31.6273432 17.639585,31.6414588 C17.5244697,31.6555745 17.4426085,31.7602135 17.4567429,31.8751765 L17.5942923,32.9939447 C17.6084267,33.1089077 17.7132043,33.1906607 17.8283196,33.176545 C17.9434349,33.1624293 18.0252961,33.0577903 18.0111617,32.9428273 Z" id="Shadow" fill="#324A5E" fill-rule="nonzero" transform="translate(17.955156, 32.409002) scale(-1, 1) rotate(45.000000) translate(-17.955156, -32.409002) "></path>
                            <path d="M30.847279,35.4990572 L30.9309741,38.2139189 C35.8477537,39.7096527 39.2921253,40.9536158 41.2640888,41.9458082 C41.6613091,42.1456694 41.9079629,42.2885951 42.0040504,42.3745856 C42.0445983,42.4127949 42.0764112,42.4458781 42.099489,42.4738352 C42.1560363,42.5423382 42.099489,42.6127065 41.9202785,42.62558 C41.8008049,42.6341624 36.7366952,42.7025853 26.7279494,42.8308485 L26.7279494,42.8308485 L27.8363623,36.5043289 L30.847279,35.4990572 Z M29.5333577,23.3288031 C29.769971,23.8182568 30.0030666,24.4546985 30.2326445,25.2381282 C30.4622223,26.0215578 30.5943798,26.9435156 30.6291169,28.0040013 L29.2788459,28.2278738 C29.4015187,27.550012 29.486356,27.0644584 29.5333577,26.771213 C29.6219582,26.2184313 29.7181684,25.7300491 29.7181684,25.3469116 C29.7181684,24.6599936 29.6565648,23.9872907 29.5333577,23.3288031 Z" id="Shadow-Arms" fill="#8C2A00" fill-rule="nonzero" opacity="0.2" transform="translate(34.424248, 33.079826) rotate(-38.000000) translate(-34.424248, -33.079826) "></path>
                        </g>
                    </g>
                </g>
            </g>
            <circle id="Oval" fill="#FFD05B" fill-rule="nonzero" cx="26" cy="17" r="4"></circle>
        </g>
    </g>
</svg>