<svg id="icon_bed" data-name="icon / bed" xmlns="http://www.w3.org/2000/svg" width="72" height="72" viewBox="0 0 72 72">
  <g id="bed">
    <circle id="Oval" cx="36" cy="36" r="36" fill="#324a5e"/>
    <path id="Path" d="M38.729,12.857v1.757H4.671V1.125A1.125,1.125,0,0,0,3.546,0H1.125A1.125,1.125,0,0,0,0,1.125V24.146a1.125,1.125,0,0,0,1.125,1.125H3.546a1.125,1.125,0,0,0,1.125-1.125V18.371H38.729v5.775a1.125,1.125,0,0,0,1.125,1.125h1.364a1.125,1.125,0,0,0,1.125-1.125V13.982a1.125,1.125,0,0,0-1.125-1.125Z" transform="translate(14.829 27.743)" fill="#ffd05b"/>
    <path id="Path-2" data-name="Path" d="M33.857,0H0V4.2H34.057V.2A.2.2,0,0,0,33.857,0Z" transform="translate(19.5 38.157)" fill="#59bf91"/>
    <path id="Path-3" data-name="Path" d="M6.929,0H0V2.371H7.629V.6A.658.658,0,0,0,6.929,0Z" transform="translate(19.5 35.786)" fill="#ff7058"/>
    <path id="Path-4" data-name="Path" d="M3.457,4.457A7.51,7.51,0,0,1,4.929,0,8.042,8.042,0,1,0,15.457,10.529,7.447,7.447,0,0,1,11,12,7.554,7.554,0,0,1,3.457,4.457Z" transform="translate(31.9 12.243)" fill="#fff"/>
  </g>
</svg>
