<svg id="icon_bed" data-name="icon / bed" xmlns="http://www.w3.org/2000/svg" width="88" height="88" viewBox="0 0 88 88">
  <g id="bed">
    <circle id="Oval" cx="44" cy="44" r="44" fill="#324a5e"/>
    <path id="Path" d="M47.335,15.714v2.148H5.71V1.375A1.375,1.375,0,0,0,4.335,0H1.375A1.375,1.375,0,0,0,0,1.375V29.512a1.375,1.375,0,0,0,1.375,1.375h2.96A1.375,1.375,0,0,0,5.71,29.512V22.454H47.335v7.058a1.375,1.375,0,0,0,1.375,1.375h1.667a1.375,1.375,0,0,0,1.375-1.375V17.089a1.375,1.375,0,0,0-1.375-1.375Z" transform="translate(18.124 33.908)" fill="#ffd05b"/>
    <path id="Path-2" data-name="Path" d="M41.381,0H0V5.133H41.625V.244A.25.25,0,0,0,41.381,0Z" transform="translate(23.833 46.637)" fill="#59bf91"/>
    <path id="Path-3" data-name="Path" d="M8.468,0H0V2.9H9.324V.733A.8.8,0,0,0,8.468,0Z" transform="translate(23.833 43.738)" fill="#ff7058"/>
    <path id="Path-4" data-name="Path" d="M4.225,5.448A9.179,9.179,0,0,1,6.024,0,9.829,9.829,0,1,0,18.892,12.868a9.1,9.1,0,0,1-5.448,1.8A9.233,9.233,0,0,1,4.225,5.448Z" transform="translate(38.989 14.963)" fill="#fff"/>
  </g>
</svg>
