<svg xmlns="http://www.w3.org/2000/svg" width="56.4" height="45.5" viewBox="0 0 56.4 45.5"><defs><style>.a{fill:#fbb03c;}.b{fill:#59bf91;}</style></defs><g transform="translate(-0.3 -0.5)"><circle class="a" cx="8.5" cy="8.5" r="8.5" transform="translate(10.1 0.5)"/><path class="b" d="M2.9,39.7l-.7,1.7H56.3l.1-.1L51.3,29.2l3.5,1.5L49.7,18.6l3,1.3L44.3,0,35.9,19.8l3-1.3L34.5,29l-1.9-4.4,1.9.8L29.3,13,24.1,25.4l1.9-.8-2.2,5.3-2.4-5.7L15.7,37.4,13,31l2.4,1L8.6,15.9,1.8,32l2.4-1L0,40.9Z" transform="translate(0.3 4.6)"/></g></svg>