<?xml version="1.0" encoding="UTF-8"?>
<svg width="178px" height="46px" viewBox="0 0 178 46" version="1.1" xmlns="http://www.w3.org/2000/svg" xmlns:xlink="http://www.w3.org/1999/xlink">
    <!-- Generator: Sketch 62 (91390) - https://sketch.com -->
    <title>logo DWD</title>
    <desc>Created with Sketch.</desc>
    <g id="logo-DWD" stroke="none" stroke-width="1" fill="none" fill-rule="evenodd">
        <g id="Group-3" fill-rule="nonzero">
            <path d="M77.41,18 C78.4833333,18 79.4096667,17.7923333 80.189,17.377 C80.9683333,16.9616667 81.5633333,16.3806667 81.974,15.634 C82.3846667,14.8873333 82.59,14.024 82.59,13.044 C82.59,12.0546667 82.3846667,11.189 81.974,10.447 C81.5633333,9.705 80.9683333,9.131 80.189,8.725 C79.4096667,8.319 78.4833333,8.116 77.41,8.116 L77.41,8.116 L73.896,8.116 L73.896,18 L77.41,18 Z M77.242,16.236 L75.87,16.236 L75.87,9.838 L77.242,9.838 C78.306,9.838 79.1296667,10.118 79.713,10.678 C80.2963333,11.238 80.588,12.0266667 80.588,13.044 C80.588,14.052 80.2963333,14.836 79.713,15.396 C79.1296667,15.956 78.306,16.236 77.242,16.236 L77.242,16.236 Z M87.658,18.098 C88.414,18.098 89.093,17.937 89.695,17.615 C90.297,17.293 90.7706667,16.8333333 91.116,16.236 C91.4613333,15.6386667 91.634,14.934 91.634,14.122 C91.634,13.31 91.4613333,12.603 91.116,12.001 C90.7706667,11.399 90.297,10.9393333 89.695,10.622 C89.093,10.3046667 88.414,10.146 87.658,10.146 C86.902,10.146 86.223,10.3046667 85.621,10.622 C85.019,10.9393333 84.5453333,11.399 84.2,12.001 C83.8546667,12.603 83.682,13.31 83.682,14.122 C83.682,14.934 83.8546667,15.6386667 84.2,16.236 C84.5453333,16.8333333 85.019,17.293 85.621,17.615 C86.223,17.937 86.902,18.098 87.658,18.098 Z M87.658,16.39 C87.1073333,16.39 86.6406667,16.1963333 86.258,15.809 C85.8753333,15.4216667 85.684,14.8593333 85.684,14.122 C85.684,13.3846667 85.8753333,12.8223333 86.258,12.435 C86.6406667,12.0476667 87.1073333,11.854 87.658,11.854 C88.2086667,11.854 88.6753333,12.0476667 89.058,12.435 C89.4406667,12.8223333 89.632,13.3846667 89.632,14.122 C89.632,14.8593333 89.4406667,15.4216667 89.058,15.809 C88.6753333,16.1963333 88.2086667,16.39 87.658,16.39 Z M95.008,18 L95.008,13.884 C95.008,13.2213333 95.1713333,12.7173333 95.498,12.372 C95.8246667,12.0266667 96.2633333,11.854 96.814,11.854 C97.346,11.854 97.7636667,12.015 98.067,12.337 C98.3703333,12.659 98.522,13.1186667 98.522,13.716 L98.522,13.716 L98.522,18 L100.482,18 L100.482,13.884 C100.482,13.2213333 100.645333,12.7173333 100.972,12.372 C101.298667,12.0266667 101.737333,11.854 102.288,11.854 C102.82,11.854 103.237667,12.015 103.541,12.337 C103.844333,12.659 103.996,13.1186667 103.996,13.716 L103.996,13.716 L103.996,18 L105.956,18 L105.956,13.492 C105.956,12.4186667 105.683,11.5903333 105.137,11.007 C104.591,10.4236667 103.846667,10.132 102.904,10.132 C102.306667,10.132 101.767667,10.2883333 101.287,10.601 C100.806333,10.9136667 100.444667,11.336 100.202,11.868 C99.9686667,11.308 99.621,10.8786667 99.159,10.58 C98.697,10.2813333 98.1533333,10.132 97.528,10.132 C96.94,10.132 96.4243333,10.2696667 95.981,10.545 C95.5376667,10.8203333 95.2133333,11.21 95.008,11.714 L95.008,11.714 L95.008,10.244 L93.034,10.244 L93.034,18 L95.008,18 Z M115.14,18 L117.002,10.832 L118.85,18 L121.286,18 L123.708,8.116 L121.566,8.116 L120.054,15.774 L118.08,8.116 L115.91,8.116 L113.95,15.774 L112.438,8.116 L110.296,8.116 L112.718,18 L115.14,18 Z M128.538,18.098 C129.536667,18.098 130.369667,17.8273333 131.037,17.286 C131.704333,16.7446667 132.122,16.0073333 132.29,15.074 L132.29,15.074 L130.204,15.074 C130.12,15.4846667 129.928667,15.809 129.63,16.047 C129.331333,16.285 128.953333,16.404 128.496,16.404 C127.973333,16.404 127.537,16.2103333 127.187,15.823 C126.837,15.4356667 126.662,14.8686667 126.662,14.122 C126.662,13.3753333 126.837,12.8083333 127.187,12.421 C127.537,12.0336667 127.973333,11.84 128.496,11.84 C128.953333,11.84 129.331333,11.959 129.63,12.197 C129.928667,12.435 130.12,12.7593333 130.204,13.17 L130.204,13.17 L132.29,13.17 C132.122,12.2366667 131.704333,11.4993333 131.037,10.958 C130.369667,10.4166667 129.536667,10.146 128.538,10.146 C127.782,10.146 127.11,10.3046667 126.522,10.622 C125.934,10.9393333 125.476667,11.399 125.15,12.001 C124.823333,12.603 124.66,13.31 124.66,14.122 C124.66,14.934 124.823333,15.6386667 125.15,16.236 C125.476667,16.8333333 125.934,17.293 126.522,17.615 C127.11,17.937 127.782,18.098 128.538,18.098 Z M139.094,18 L139.094,16.348 L135.286,16.348 L138.954,11.798 L138.954,10.244 L133.214,10.244 L133.214,11.882 L136.7,11.882 L133.13,16.432 L133.13,18 L139.094,18 Z M143.364,18.098 C144.017333,18.098 144.577333,17.9416667 145.044,17.629 C145.510667,17.3163333 145.842,16.8986667 146.038,16.376 L146.038,16.376 L146.038,18 L147.998,18 L147.998,10.244 L146.038,10.244 L146.038,11.854 C145.842,11.3313333 145.510667,10.916 145.044,10.608 C144.577333,10.3 144.017333,10.146 143.364,10.146 C142.710667,10.146 142.122667,10.3046667 141.6,10.622 C141.077333,10.9393333 140.669,11.399 140.375,12.001 C140.081,12.603 139.934,13.31 139.934,14.122 C139.934,14.934 140.081,15.641 140.375,16.243 C140.669,16.845 141.077333,17.3046667 141.6,17.622 C142.122667,17.9393333 142.710667,18.098 143.364,18.098 Z M143.98,16.362 C143.364,16.362 142.869333,16.1636667 142.496,15.767 C142.122667,15.3703333 141.936,14.822 141.936,14.122 C141.936,13.422 142.122667,12.8713333 142.496,12.47 C142.869333,12.0686667 143.364,11.868 143.98,11.868 C144.577333,11.868 145.069667,12.071 145.457,12.477 C145.844333,12.883 146.038,13.4313333 146.038,14.122 C146.038,14.8033333 145.844333,15.347 145.457,15.753 C145.069667,16.159 144.577333,16.362 143.98,16.362 Z M153.024,18.098 C153.901333,18.098 154.599,17.8926667 155.117,17.482 C155.635,17.0713333 155.894,16.5346667 155.894,15.872 C155.894,15.34 155.761,14.9176667 155.495,14.605 C155.229,14.2923333 154.911667,14.0636667 154.543,13.919 C154.174333,13.7743333 153.696,13.6366667 153.108,13.506 C152.688,13.4033333 152.366,13.3146667 152.142,13.24 C151.918,13.1653333 151.731333,13.0626667 151.582,12.932 C151.432667,12.8013333 151.358,12.6286667 151.358,12.414 C151.358,12.1433333 151.451333,11.9286667 151.638,11.77 C151.824667,11.6113333 152.086,11.532 152.422,11.532 C152.842,11.532 153.182667,11.644 153.444,11.868 C153.705333,12.092 153.873333,12.3906667 153.948,12.764 L153.948,12.764 L155.796,12.764 C155.656,11.9706667 155.301333,11.336 154.732,10.86 C154.162667,10.384 153.406667,10.146 152.464,10.146 C151.558667,10.146 150.849333,10.356 150.336,10.776 C149.822667,11.196 149.566,11.742 149.566,12.414 C149.566,12.9366667 149.694333,13.3473333 149.951,13.646 C150.207667,13.9446667 150.515667,14.1616667 150.875,14.297 C151.234333,14.4323333 151.703333,14.5653333 152.282,14.696 C152.702,14.7986667 153.026333,14.8873333 153.255,14.962 C153.483667,15.0366667 153.675,15.144 153.829,15.284 C153.983,15.424 154.06,15.606 154.06,15.83 C154.06,16.0913333 153.971333,16.3036667 153.794,16.467 C153.616667,16.6303333 153.36,16.712 153.024,16.712 C152.557333,16.712 152.179333,16.6023333 151.89,16.383 C151.600667,16.1636667 151.432667,15.8626667 151.386,15.48 L151.386,15.48 L149.496,15.48 C149.626667,16.32 149.995333,16.9663333 150.602,17.419 C151.208667,17.8716667 152.016,18.098 153.024,18.098 Z M159.842,9.656 L163.062,8.144 L163.062,6.632 L159.842,8.312 L159.842,9.656 Z M160.948,18.098 C161.704,18.098 162.383,17.937 162.985,17.615 C163.587,17.293 164.060667,16.8333333 164.406,16.236 C164.751333,15.6386667 164.924,14.934 164.924,14.122 C164.924,13.31 164.751333,12.603 164.406,12.001 C164.060667,11.399 163.587,10.9393333 162.985,10.622 C162.383,10.3046667 161.704,10.146 160.948,10.146 C160.192,10.146 159.513,10.3046667 158.911,10.622 C158.309,10.9393333 157.835333,11.399 157.49,12.001 C157.144667,12.603 156.972,13.31 156.972,14.122 C156.972,14.934 157.144667,15.6386667 157.49,16.236 C157.835333,16.8333333 158.309,17.293 158.911,17.615 C159.513,17.937 160.192,18.098 160.948,18.098 Z M160.948,16.39 C160.397333,16.39 159.930667,16.1963333 159.548,15.809 C159.165333,15.4216667 158.974,14.8593333 158.974,14.122 C158.974,13.3846667 159.165333,12.8223333 159.548,12.435 C159.930667,12.0476667 160.397333,11.854 160.948,11.854 C161.498667,11.854 161.965333,12.0476667 162.348,12.435 C162.730667,12.8223333 162.922,13.3846667 162.922,14.122 C162.922,14.8593333 162.730667,15.4216667 162.348,15.809 C161.965333,16.1963333 161.498667,16.39 160.948,16.39 Z M169.782,18 L171.49,12.358 L173.156,18 L175.34,18 L177.426,10.244 L175.578,10.244 L174.304,16.236 L172.568,10.244 L170.482,10.244 L168.76,16.236 L167.5,10.244 L165.526,10.244 L167.598,18 L169.782,18 Z M77.41,38 C78.4833333,38 79.4096667,37.7923333 80.189,37.377 C80.9683333,36.9616667 81.5633333,36.3806667 81.974,35.634 C82.3846667,34.8873333 82.59,34.024 82.59,33.044 C82.59,32.0546667 82.3846667,31.189 81.974,30.447 C81.5633333,29.705 80.9683333,29.131 80.189,28.725 C79.4096667,28.319 78.4833333,28.116 77.41,28.116 L77.41,28.116 L73.896,28.116 L73.896,38 L77.41,38 Z M77.242,36.236 L75.87,36.236 L75.87,29.838 L77.242,29.838 C78.306,29.838 79.1296667,30.118 79.713,30.678 C80.2963333,31.238 80.588,32.0266667 80.588,33.044 C80.588,34.052 80.2963333,34.836 79.713,35.396 C79.1296667,35.956 78.306,36.236 77.242,36.236 L77.242,36.236 Z M89.478,38 L89.478,36.348 L85.67,36.348 L89.338,31.798 L89.338,30.244 L83.598,30.244 L83.598,31.882 L87.084,31.882 L83.514,36.432 L83.514,38 L89.478,38 Z M91.704,29.082 C92.068,29.082 92.362,28.9816667 92.586,28.781 C92.81,28.5803333 92.922,28.326 92.922,28.018 C92.922,27.7006667 92.81,27.4416667 92.586,27.241 C92.362,27.0403333 92.068,26.94 91.704,26.94 C91.34,26.94 91.046,27.0403333 90.822,27.241 C90.598,27.4416667 90.486,27.7006667 90.486,28.018 C90.486,28.326 90.598,28.5803333 90.822,28.781 C91.046,28.9816667 91.34,29.082 91.704,29.082 Z M92.684,38 L92.684,30.244 L90.71,30.244 L90.71,38 L92.684,38 Z M97.962,38.098 C98.606,38.098 99.1916667,37.9766667 99.719,37.734 C100.246333,37.4913333 100.678,37.1553333 101.014,36.726 C101.35,36.2966667 101.569333,35.8113333 101.672,35.27 L101.672,35.27 L99.586,35.27 C99.502,35.6526667 99.3083333,35.956 99.005,36.18 C98.7016667,36.404 98.3213333,36.516 97.864,36.516 C97.3506667,36.516 96.9213333,36.3526667 96.576,36.026 C96.2306667,35.6993333 96.044,35.1906667 96.016,34.5 L96.016,34.5 L101.7,34.5 C101.746667,34.248 101.77,34.024 101.77,33.828 C101.77,33.1186667 101.613667,32.4863333 101.301,31.931 C100.988333,31.3756667 100.545,30.9393333 99.971,30.622 C99.397,30.3046667 98.7273333,30.146 97.962,30.146 C97.206,30.146 96.534,30.3046667 95.946,30.622 C95.358,30.9393333 94.9006667,31.399 94.574,32.001 C94.2473333,32.603 94.084,33.31 94.084,34.122 C94.084,34.934 94.2473333,35.6386667 94.574,36.236 C94.9006667,36.8333333 95.358,37.293 95.946,37.615 C96.534,37.937 97.206,38.098 97.962,38.098 Z M99.782,33.632 L96.016,33.632 C96.0533333,32.9973333 96.254,32.5166667 96.618,32.19 C96.982,31.8633333 97.43,31.7 97.962,31.7 C98.4846667,31.7 98.9256667,31.8633333 99.285,32.19 C99.6443333,32.5166667 99.81,32.9973333 99.782,33.632 L99.782,33.632 Z M106.656,38.098 C107.654667,38.098 108.487667,37.8273333 109.155,37.286 C109.822333,36.7446667 110.24,36.0073333 110.408,35.074 L110.408,35.074 L108.322,35.074 C108.238,35.4846667 108.046667,35.809 107.748,36.047 C107.449333,36.285 107.071333,36.404 106.614,36.404 C106.091333,36.404 105.655,36.2103333 105.305,35.823 C104.955,35.4356667 104.78,34.8686667 104.78,34.122 C104.78,33.3753333 104.955,32.8083333 105.305,32.421 C105.655,32.0336667 106.091333,31.84 106.614,31.84 C107.071333,31.84 107.449333,31.959 107.748,32.197 C108.046667,32.435 108.238,32.7593333 108.322,33.17 L108.322,33.17 L110.408,33.17 C110.24,32.2366667 109.822333,31.4993333 109.155,30.958 C108.487667,30.4166667 107.654667,30.146 106.656,30.146 C105.9,30.146 105.228,30.3046667 104.64,30.622 C104.052,30.9393333 103.594667,31.399 103.268,32.001 C102.941333,32.603 102.778,33.31 102.778,34.122 C102.778,34.934 102.941333,35.6386667 103.268,36.236 C103.594667,36.8333333 104.052,37.293 104.64,37.615 C105.228,37.937 105.9,38.098 106.656,38.098 Z M112.802,29.082 C113.166,29.082 113.46,28.9816667 113.684,28.781 C113.908,28.5803333 114.02,28.326 114.02,28.018 C114.02,27.7006667 113.908,27.4416667 113.684,27.241 C113.46,27.0403333 113.166,26.94 112.802,26.94 C112.438,26.94 112.144,27.0403333 111.92,27.241 C111.696,27.4416667 111.584,27.7006667 111.584,28.018 C111.584,28.326 111.696,28.5803333 111.92,28.781 C112.144,28.9816667 112.438,29.082 112.802,29.082 Z M113.782,38 L113.782,30.244 L111.808,30.244 L111.808,38 L113.782,38 Z M121.888,39.904 L121.888,38.84 L120.46,38.84 C120.189333,38.84 119.981667,38.7933333 119.837,38.7 C119.692333,38.6066667 119.62,38.4806667 119.62,38.322 C119.62,38.2286667 119.643333,38.1563333 119.69,38.105 C119.736667,38.0536667 119.816,38.0186667 119.928,38 C120.684,37.86 121.314,37.545 121.818,37.055 C122.322,36.565 122.639333,35.97 122.77,35.27 L122.77,35.27 L120.684,35.27 C120.6,35.6433333 120.406333,35.9443333 120.103,36.173 C119.799667,36.4016667 119.424,36.516 118.976,36.516 C118.472,36.516 118.045,36.3503333 117.695,36.019 C117.345,35.6876667 117.151333,35.1813333 117.114,34.5 L117.114,34.5 L122.798,34.5 C122.844667,34.248 122.868,34.024 122.868,33.828 C122.868,33.1186667 122.711667,32.4863333 122.399,31.931 C122.086333,31.3756667 121.643,30.9393333 121.069,30.622 C120.495,30.3046667 119.825333,30.146 119.06,30.146 C118.304,30.146 117.632,30.3046667 117.044,30.622 C116.456,30.9393333 115.998667,31.399 115.672,32.001 C115.345333,32.603 115.182,33.31 115.182,34.122 C115.182,35.1953333 115.464333,36.075 116.029,36.761 C116.593667,37.447 117.342667,37.86 118.276,38 L118.276,38 L118.276,38.35 C118.276,38.8633333 118.458,39.2506667 118.822,39.512 C119.186,39.7733333 119.638667,39.904 120.18,39.904 L120.18,39.904 L121.888,39.904 Z M120.88,33.632 L117.114,33.632 C117.151333,32.9973333 117.352,32.5166667 117.716,32.19 C118.08,31.8633333 118.528,31.7 119.06,31.7 C119.582667,31.7 120.023667,31.8633333 120.383,32.19 C120.742333,32.5166667 120.908,32.9973333 120.88,33.632 L120.88,33.632 Z M127.754,38.098 C128.752667,38.098 129.585667,37.8273333 130.253,37.286 C130.920333,36.7446667 131.338,36.0073333 131.506,35.074 L131.506,35.074 L129.42,35.074 C129.336,35.4846667 129.144667,35.809 128.846,36.047 C128.547333,36.285 128.169333,36.404 127.712,36.404 C127.189333,36.404 126.753,36.2103333 126.403,35.823 C126.053,35.4356667 125.878,34.8686667 125.878,34.122 C125.878,33.3753333 126.053,32.8083333 126.403,32.421 C126.753,32.0336667 127.189333,31.84 127.712,31.84 C128.169333,31.84 128.547333,31.959 128.846,32.197 C129.144667,32.435 129.336,32.7593333 129.42,33.17 L129.42,33.17 L131.506,33.17 C131.338,32.2366667 130.920333,31.4993333 130.253,30.958 C129.585667,30.4166667 128.752667,30.146 127.754,30.146 C126.998,30.146 126.326,30.3046667 125.738,30.622 C125.15,30.9393333 124.692667,31.399 124.366,32.001 C124.039333,32.603 123.876,33.31 123.876,34.122 C123.876,34.934 124.039333,35.6386667 124.366,36.236 C124.692667,36.8333333 125.15,37.293 125.738,37.615 C126.326,37.937 126.998,38.098 127.754,38.098 Z M135.734,41.696 L140.48,30.244 L138.31,30.244 L136.35,35.508 L134.236,30.244 L132.038,30.244 L135.3,37.776 L133.55,41.696 L135.734,41.696 Z M144.89,38.098 C145.888667,38.098 146.721667,37.8273333 147.389,37.286 C148.056333,36.7446667 148.474,36.0073333 148.642,35.074 L148.642,35.074 L146.556,35.074 C146.472,35.4846667 146.280667,35.809 145.982,36.047 C145.683333,36.285 145.305333,36.404 144.848,36.404 C144.325333,36.404 143.889,36.2103333 143.539,35.823 C143.189,35.4356667 143.014,34.8686667 143.014,34.122 C143.014,33.3753333 143.189,32.8083333 143.539,32.421 C143.889,32.0336667 144.325333,31.84 144.848,31.84 C145.305333,31.84 145.683333,31.959 145.982,32.197 C146.280667,32.435 146.472,32.7593333 146.556,33.17 L146.556,33.17 L148.642,33.17 C148.474,32.2366667 148.056333,31.4993333 147.389,30.958 C146.721667,30.4166667 145.888667,30.146 144.89,30.146 C144.134,30.146 143.462,30.3046667 142.874,30.622 C142.286,30.9393333 141.828667,31.399 141.502,32.001 C141.175333,32.603 141.012,33.31 141.012,34.122 C141.012,34.934 141.175333,35.6386667 141.502,36.236 C141.828667,36.8333333 142.286,37.293 142.874,37.615 C143.462,37.937 144.134,38.098 144.89,38.098 Z M152.016,27.64 L150.042,27.64 L150.042,38 L152.016,38 L152.016,33.884 C152.016,33.2026667 152.184,32.68 152.52,32.316 C152.856,31.952 153.304,31.77 153.864,31.77 C154.414667,31.77 154.848667,31.9403333 155.166,32.281 C155.483333,32.6216667 155.642,33.1 155.642,33.716 L155.642,33.716 L155.642,38 L157.602,38 L157.602,33.492 C157.602,32.428 157.336,31.602 156.804,31.014 C156.272,30.426 155.558,30.132 154.662,30.132 C154.046,30.132 153.502333,30.279 153.031,30.573 C152.559667,30.867 152.221333,31.2753333 152.016,31.798 L152.016,31.797 L152.016,27.64 Z" id="DomWczasówDziecięcych" fill="#00577C"></path>
            <g id="logo-dwd">
                <circle id="Oval" fill="#FBB03C" cx="18.6" cy="9" r="8.5"></circle>
                <path d="M3.2,44.3 L2.5,46 C23.4,46 45.4,46 56.6,46 C56.6,46 56.6,46 56.7,45.9 L51.6,33.8 L55.1,35.3 L50,23.2 L53,24.5 L44.6,4.6 L36.2,24.4 L39.2,23.1 L34.8,33.6 L32.9,29.2 L34.8,30 L29.6,17.6 L24.4,30 L26.3,29.2 L24.1,34.5 L21.7,28.8 L16,42 L13.3,35.6 L15.7,36.6 L8.9,20.5 L2.1,36.6 L4.5,35.6 L0.3,45.5 L3.2,44.3 Z" id="Path" fill="#59BF91"></path>
            </g>
        </g>
    </g>
</svg>