<?xml version="1.0" encoding="UTF-8"?>
<svg width="500px" height="389px" viewBox="0 0 500 389" version="1.1" xmlns="http://www.w3.org/2000/svg" xmlns:xlink="http://www.w3.org/1999/xlink">
    <!-- Generator: Sketch 62 (91390) - https://sketch.com -->
    <title>Travelers</title>
    <desc>Created with Sketch.</desc>
    <g id="Travelers" stroke="none" stroke-width="1" fill="none" fill-rule="evenodd">
        <g id="Group-3">
            <g id="Map" transform="translate(3.600000, 29.800000)">
                <g id="back" transform="translate(0.001883, 0.122833)">
                    <g id="Group-8">
                        <g id="Group-4" transform="translate(248.082413, 178.909201) scale(-1, 1) rotate(-165.000000) translate(-248.082413, -178.909201) translate(25.582413, 53.909201)" fill-rule="nonzero">
                            <ellipse id="Oval" fill="#E1E5F0" cx="167.966474" cy="180.839326" rx="37.3828627" ry="37.4817236"></ellipse>
                            <path d="M25.7753496,175.275175 L68.5326812,239.651445 L0.0783481749,249.265071 L25.7753496,175.275175 Z M105.66213,149.369031 L105.66213,237.47542 L82.6906702,237.47542 L34.2948465,164.826498 L105.66213,149.369031 Z M263.603279,180.384971 L273.577336,212.253307 L222.600705,218.219875 L224.693586,185.950299 L263.603279,180.384971 Z M341.911571,119.217191 L356.293972,205.830436 L297.317765,211.704561 L282.013739,128.041966 L341.911571,119.217191 Z M168.239572,150.343672 C185.131741,150.343672 198.82555,164.073695 198.82555,181.010537 C198.82555,197.947379 185.131741,211.677402 168.239572,211.677402 C151.347402,211.677402 137.653593,197.947379 137.653593,181.010537 C137.653593,164.073695 151.347402,150.343672 168.239572,150.343672 Z M418.798883,105.536141 L444.176973,160.408055 L368.653683,203.799661 L352.36792,118.563449 L418.798883,105.536141 Z M263.876583,128.206245 L263.876583,168.907785 L221.067299,175.423481 L213.870936,139.500903 L263.876583,128.206245 Z M92.8199277,0.288503543 L138.379809,17.8984519 L112.578455,127.453735 L38.3685144,139.506334 L92.8199277,0.288503543 Z M155.520363,25.3020137 L187.533247,38.2632139 L165.681838,119.484598 L122.992417,128.011672 L155.520363,25.3020137 Z M207.38625,42.335252 L252.278232,60.4455578 L256.613202,107.163511 L188.774866,116.17481 L207.38625,42.335252 Z M381.264477,40.7848272 L406.009663,79.5734699 L269.399459,105.228289 L264.246079,69.4871934 L326.497606,59.5587416 L381.264477,40.7848272 Z M308.938177,22.0861422 L317.984923,50.9131862 L263.20581,60.5905499 L263.015978,32.682322 L308.938177,22.0861422 Z M359.836543,6.67072223 L371.545159,34.5080222 L327.476181,48.3632859 L319.914823,20.0692862 L359.836543,6.67072223 Z M373.68674,4.39959129 L426.963974,5.15219138 C428.444026,5.17309876 429.740705,6.14860952 430.171002,7.56488503 C430.698359,9.30062555 429.770734,11.1318197 428.088035,11.7476598 L427.904888,11.8089324 L381.010694,26.0564482 L373.68674,4.39959129 Z" id="Combined-Shape" fill="#F2F6FB"></path>
                        </g>
                        <path d="M234.805128,262.201387 C240.435851,262.201387 245.000454,266.778061 245.000454,272.423675 C245.000454,278.069289 240.435851,282.645963 234.805128,282.645963 C229.174405,282.645963 224.609802,278.069289 224.609802,272.423675 C224.609802,266.778061 229.174405,262.201387 234.805128,262.201387 Z M229.510565,238.351999 C231.258923,237.355765 233.481725,237.96923 234.475331,239.722212 L234.475331,239.722212 L240.952033,251.148808 C241.94564,252.90179 241.333793,255.13047 239.585435,256.126704 C237.837077,257.122939 235.614275,256.509473 234.620668,254.756492 L234.620668,254.756492 L228.143966,243.329896 C227.150359,241.576914 227.762206,239.348234 229.510565,238.351999 Z M216.55716,215.498807 C218.305519,214.502573 220.52832,215.116038 221.521927,216.86902 L221.521927,216.86902 L227.998629,228.295616 C228.992236,230.048598 228.380389,232.277278 226.63203,233.273512 C224.883672,234.269747 222.66087,233.656281 221.667264,231.9033 L221.667264,231.9033 L215.190562,220.476704 C214.196955,218.723722 214.808802,216.495042 216.55716,215.498807 Z M203.485541,192.713426 C205.228171,191.707152 207.454446,192.307822 208.458066,194.055061 L208.458066,194.055061 L215.000037,205.444217 C216.003657,207.191455 215.404571,209.423617 213.661941,210.429891 C211.919312,211.436165 209.693037,210.835495 208.689417,209.088257 L208.689417,209.088257 L202.147445,197.699101 C201.143826,195.951863 201.742912,193.7197 203.485541,192.713426 Z M212.222285,179.953129 C214.22335,179.753228 216.007158,181.21765 216.206532,183.224007 C216.405905,185.230364 214.945346,187.018889 212.944281,187.21879 L212.944281,187.21879 L199.900586,188.52182 C197.899522,188.721721 196.115714,187.257299 195.91634,185.250942 C195.716966,183.244585 197.177525,181.45606 199.17859,181.256159 L199.17859,181.256159 Z M238.309675,177.347069 C240.310739,177.147169 242.094547,178.61159 242.293921,180.617947 C242.493295,182.624304 241.032736,184.412829 239.031671,184.61273 L239.031671,184.61273 L225.987976,185.91576 C223.986911,186.115661 222.203103,184.651239 222.003729,182.644882 C221.804356,180.638526 223.264915,178.85 225.26598,178.650099 L225.26598,178.650099 Z M264.397064,174.74101 C266.398129,174.541109 268.181937,176.005531 268.381311,178.011888 C268.580684,180.018244 267.120125,181.80677 265.11906,182.006671 L265.11906,182.006671 L252.075365,183.3097 C250.0743,183.509601 248.290492,182.04518 248.091119,180.038823 C247.891745,178.032466 249.352304,176.243941 251.353369,176.04404 L251.353369,176.04404 Z M290.484453,172.13495 C292.485518,171.935049 294.269326,173.399471 294.4687,175.405828 C294.668074,177.412185 293.207514,179.20071 291.206449,179.400611 L291.206449,179.400611 L278.162755,180.703641 C276.16169,180.903542 274.377882,179.43912 274.178508,177.432763 C273.979134,175.426406 275.439694,173.637881 277.440759,173.43798 L277.440759,173.43798 Z M316.571843,169.528891 C318.572908,169.32899 320.356716,170.793411 320.556089,172.799768 C320.755463,174.806125 319.294904,176.59465 317.293839,176.794551 L317.293839,176.794551 L304.250144,178.097581 C302.249079,178.297482 300.465271,176.83306 300.265898,174.826704 C300.066524,172.820347 301.527083,171.031821 303.528148,170.83192 L303.528148,170.83192 Z M342.659232,166.922831 C344.660297,166.72293 346.444105,168.187352 346.643479,170.193709 C346.842853,172.200066 345.382293,173.988591 343.381228,174.188492 L343.381228,174.188492 L330.337534,175.491522 C328.336469,175.691423 326.552661,174.227001 326.353287,172.220644 C326.153913,170.214287 327.614473,168.425762 329.615538,168.225861 L329.615538,168.225861 Z M368.746622,164.316771 C370.747687,164.11687 372.531495,165.581292 372.730868,167.587649 C372.930242,169.594006 371.469683,171.382531 369.468618,171.582432 L369.468618,171.582432 L356.424923,172.885462 C354.423858,173.085363 352.64005,171.620941 352.440676,169.614584 C352.241303,167.608227 353.701862,165.819702 355.702927,165.619801 L355.702927,165.619801 Z M394.975233,162.274728 C396.980696,162.125579 398.727036,163.634718 398.875792,165.645484 C399.024548,167.656251 397.519389,169.407209 395.513926,169.556358 L395.513926,169.556358 L382.441562,170.52857 C380.436099,170.677719 378.689759,169.16858 378.541003,167.157813 C378.392248,165.147046 379.897406,163.396089 381.902869,163.246939 L381.902869,163.246939 Z M421.119961,160.330305 C423.125424,160.181156 424.871764,161.690295 425.02052,163.701062 C425.169275,165.711828 423.664117,167.462786 421.658654,167.611936 L421.658654,167.611936 L408.58629,168.584147 C406.580827,168.733296 404.834487,167.224157 404.685731,165.213391 C404.536975,163.202624 406.042134,161.451666 408.047597,161.302517 L408.047597,161.302517 Z M447.365751,158.599259 C449.374215,158.49857 451.083805,160.049433 451.184229,162.063208 C451.284652,164.076983 449.737879,165.791094 447.729416,165.891783 L447.729416,165.891783 L438.68013,166.345301 L434.731018,166.639724 C432.790247,166.784062 431.092152,165.375373 430.849797,163.461953 L430.830459,163.268968 C430.681703,161.258201 432.186862,159.507243 434.192325,159.358094 L434.192325,159.358094 L438.209042,159.059365 L438.296556,159.053918 Z M450.00363,137.242429 C450.365415,135.259037 452.262317,133.94524 454.240478,134.307982 C456.218639,134.670723 457.528971,136.572641 457.167186,138.556034 L457.167186,138.556034 L454.808934,151.484534 C454.447149,153.467927 452.550248,154.781724 450.572086,154.418982 C448.593925,154.05624 447.283593,152.154322 447.645378,150.17093 L447.645378,150.17093 Z M454.720134,111.385429 C455.081919,109.402036 456.978821,108.088239 458.956982,108.450981 C460.935143,108.813723 462.245475,110.715641 461.88369,112.699033 L461.88369,112.699033 L459.525438,125.627534 C459.163653,127.610926 457.266751,128.924723 455.28859,128.561981 C453.310429,128.199239 452.000097,126.297322 452.361882,124.313929 L452.361882,124.313929 Z M452.790912,80.1473006 C458.421635,80.1473006 462.986238,84.723975 462.986238,90.3695889 C462.986238,96.0152028 458.421635,100.591877 452.790912,100.591877 C447.160189,100.591877 442.595586,96.0152028 442.595586,90.3695889 C442.595586,84.723975 447.160189,80.1473006 452.790912,80.1473006 Z" id="Combined-Shape" fill="#D8DEED" fill-rule="nonzero"></path>
                        <g id="Group-5" transform="translate(155.669977, 66.030807)">
                            <path d="M29.3157983,77.1981357 C44.4036757,51.8196638 51.9476144,34.6934893 51.9476144,25.8196123 C51.9476144,11.5598342 40.3187448,0 25.9738072,0 C11.6288696,0 0,11.5598342 0,25.8196123 C0,34.6934896 7.54393927,51.819665 22.6318178,77.1981386 L22.6318226,77.1981357 C23.7291358,79.0438646 26.1149428,79.6505754 27.9606718,78.5532622 C28.518375,78.2216994 28.9842355,77.7558389 29.3157983,77.1981357 Z" id="Pin" fill="#308D6E" fill-rule="nonzero"></path>
                            <ellipse id="Oval" fill="#FFFFFF" cx="26.2165531" cy="28.4763744" rx="15.0502434" ry="15.3334324"></ellipse>
                        </g>
                    </g>
                </g>
            </g>
            <g id="Animals-/-Cat" transform="translate(191.600000, 253.800000)" fill-rule="nonzero">
                <g id="Cat">
                    <path d="M81.6254791,0.0718134682 C81.7768286,0.12282427 81.8777283,0.224845874 81.9786279,0.377878279 C84.1019372,3.37357964 89.3184599,11.0118246 90.721539,14.8742013 C94.6034285,16.8034076 95.9289871,18.7127973 96.1353899,20.3826895 C96.4383668,23.1922738 95.781917,25.4499756 94.2165369,29.1626406 C91.1867689,36.5879707 88.6114661,44.113643 86.5411246,51.84 C85.9346145,51.709365 85.3295294,51.571651 84.7260488,51.4269174 C85.9917477,56.2510354 85.9474442,59.94 85.9474442,59.94 L2.2623242,59.94 L2.2623242,59.94 C3.68172264,59.94 13.9415011,32.1585102 50.1455094,29.3349831 C51.1863747,29.2523571 52.1969827,29.1997791 53.178213,29.1755895 C53.397406,28.2547628 53.7777068,27.4228436 54.4682591,26.165026 C52.9517618,22.4480069 51.7837441,13.7323773 51.3873476,10.1032006 C51.3873476,9.95405045 51.4382567,9.8049003 51.4891658,9.65575016 C51.6928022,9.25801643 52.2528022,9.05914957 52.710984,9.25801643 L52.710984,9.25801643 L64.1712064,14.874625 C66.1282703,14.1588086 68.1986554,13.5079129 70.3823619,12.8570171 C72.4507506,12.2246857 74.5191393,11.6857479 76.464121,11.1911584 L80.5660328,0.530910684 C80.7173822,0.12282427 81.2218805,-0.132229739 81.6254791,0.0718134682 Z" id="Base-Color" fill="#FFCB3D"></path>
                    <path d="M33.303623,54.0694038 C42.0058496,56.3443647 47.0740488,58.3304221 48.5082206,60.0275759 L3.5064747,60.0275759 C1.59578605,60.0275759 0.0873476369,58.4790465 0.0873476369,56.5175759 C-0.339835957,53.8149533 0.799873063,52.170439 3.5064747,51.5840327 C14.6690137,50.9659858 24.6013965,51.7944429 33.303623,54.0694038 Z M93.8448628,29.97 C93.8448628,29.97 89.6426418,43.6133223 86.9898075,51.9088041 C87.1365552,51.2209419 85.1321152,56.5831409 84.8073399,55.4664052 L84.7874546,55.3778238 L84.7874546,55.3275482 C84.4370803,53.6684518 83.0856364,52.4618362 81.3838182,52.361285 C79.782107,52.2607337 78.0802888,52.210458 76.2783637,52.210458 C74.2637113,52.210458 72.2107367,52.3259349 70.1865037,52.5568886 L69.3209305,52.6629388 L65.9673476,42.4569824 C69.2208236,44.1160787 72.9247808,44.7193865 76.5286311,44.4177326 C77.779968,44.3171813 78.9812514,44.0658031 80.1825348,43.7138736 C83.4860642,42.7586363 86.4392193,40.797886 88.7416792,38.233828 C90.0430696,36.7255585 93.8448628,29.97 93.8448628,29.97 Z M82.3679297,23.6126741 C82.6769961,25.2835833 81.9324873,26.9348185 80.5215384,27.8286846 L80.3417268,27.9364199 L80.2856734,27.9653184 C78.9282677,28.5995146 77.3968295,28.4227786 76.2361694,27.627059 C75.8742628,28.4967597 75.1517496,29.2408102 74.1787975,29.6805074 C72.2227672,30.4236495 70.0303811,29.691877 69.043918,27.9640423 C68.8221176,27.5755488 68.957249,27.0808079 69.3457425,26.8590074 C69.7342359,26.637207 70.2289769,26.7723384 70.4507773,27.1608319 C71.033908,28.1822117 72.3791965,28.6312408 73.5568952,28.1854838 C74.4502376,27.7808124 74.9602829,26.9524385 74.8659537,26.14161 L74.8581416,26.1305281 C74.6236876,25.7228925 74.5767968,25.213348 74.6236876,24.754758 C74.6705784,24.3980769 74.8581416,24.0923502 75.0925955,23.9394868 C75.5615033,23.5828057 76.2648651,23.7866235 76.5462098,24.296168 C76.7943802,24.7864905 76.814597,25.3829738 76.7008693,25.8926566 C77.4104738,26.689072 78.5678589,26.9643024 79.5713256,26.5107599 C80.4840983,25.9794696 80.968157,24.9518562 80.7749512,23.9073259 C80.6935854,23.467437 80.9842257,23.0448766 81.4241146,22.9635108 C81.8640034,22.8821449 82.2865638,23.1727853 82.3679297,23.6126741 Z M63.0213631,25.916168 C63.5906086,26.9862114 63.0688002,28.5148449 62.4995547,28.6167538 C62.0726206,28.6677082 61.5508122,28.1072093 61.3610637,27.7505281 C61.123878,27.3428925 61.0764409,26.833348 61.123878,26.374758 C61.1713151,26.0180769 61.3610637,25.7123502 61.5982493,25.5594868 C62.0726206,25.2028057 62.7367403,25.4066235 63.0213631,25.916168 Z M87.34012,17.276168 C87.867042,18.3462114 87.388022,19.772936 86.813198,19.9767538 C86.38208,20.0277082 85.855158,19.4672093 85.66355,19.1105281 C85.42404,18.7028925 85.376138,18.193348 85.42404,17.734758 C85.471942,17.3780769 85.66355,17.0723502 85.90306,16.9194868 C86.38208,16.5628057 87.052708,16.7666235 87.34012,17.276168 Z" id="Color" fill="#DE6903"></path>
                </g>
            </g>
            <g id="Woman-in-moshion-/-1" transform="translate(0.000000, 27.000000)">
                <g id="Woman" transform="translate(0.344685, 0.289538)">
                    <path d="M38.4820866,322.270462 C39.3812008,322.270462 40.1004921,322.893539 40.1004921,323.641231 L40.1004921,323.641231 L40.1004921,324.139693 C40.1004921,324.887385 39.3452362,325.510462 38.4820866,325.510462 L38.4820866,325.510462 L1.61840551,325.510462 C0.719291339,325.510462 0,324.887385 0,324.139693 L0,324.139693 L0,323.641231 C0,322.893539 0.755255906,322.270462 1.61840551,322.270462 L1.61840551,322.270462 Z M161.659134,322.270462 C162.553835,322.270462 163.279134,322.995761 163.279134,323.890462 C163.279134,324.785164 162.553835,325.510462 161.659134,325.510462 L100.522559,325.510462 C99.6278578,325.510462 98.9025591,324.785164 98.9025591,323.890462 C98.9025591,322.995761 99.6278578,322.270462 100.522559,322.270462 L161.659134,322.270462 Z" id="Base" fill="#2C9D78" fill-rule="nonzero"></path>
                    <path d="M40.3512607,299.249111 C40.3512607,299.249111 39.9251509,306.954231 39.0729315,322.36447 C38.890273,322.304113 38.6910357,322.270462 38.4820866,322.270462 L38.4820866,322.270462 L2.08106839,322.270432 C3.51707335,319.15414 6.69475292,311.656078 11.6141071,299.776246 L11.8323425,299.249111 L40.3512607,299.249111 Z M130.155768,299.230462 C132.75633,301.084185 134.902216,302.668185 136.593425,303.982462 L137.333788,304.563236 L138.063155,305.146309 C140.453483,307.075493 143.080891,308.690816 145.881344,309.95291 C148.659584,311.204994 151.437823,312.502844 154.216063,313.846462 C155.942362,314.674462 157.596732,315.574462 159.251102,316.618462 C160.042323,317.338462 161.444941,318.778462 161.876516,320.506462 C161.948445,320.794462 161.948445,321.082462 161.984409,321.334462 C161.984409,321.673035 161.934215,321.990673 161.851983,322.283841 C161.78871,322.274319 161.724372,322.270462 161.659134,322.270462 L161.659134,322.270462 L100.522559,322.270462 C100.419214,322.270462 100.31813,322.280139 100.220162,322.298636 L103.110132,299.230462 L130.155768,299.230462 Z" id="Shoes" fill="#324A5E" fill-rule="nonzero"></path>
                    <path d="M95.6947294,101.54287 L95.7009873,101.571089 C100.841851,103.081562 114.01504,124.416543 125.228988,176.634319 C132.158123,208.89985 135.893271,244.344666 136.434432,282.968766 C136.517996,288.932857 131.750886,293.835449 125.786795,293.919012 C125.734831,293.91974 125.682862,293.920093 125.630893,293.920071 L104.475614,293.911063 C98.7651759,293.908632 94.0435103,289.461211 93.6997939,283.761126 L88.8691657,203.651494 L78.727953,184.7317 L50.8374335,284.940539 C49.5371457,289.612371 45.2823178,292.8447 40.4329098,292.8447 L17.691953,292.8447 C11.7272777,292.8447 6.89195301,288.009375 6.89195301,282.0447 C6.89195301,281.129 7.00841024,280.217018 7.23852184,279.330703 L37.2345657,163.795704 C41.6175227,139.791344 45.302603,124.216131 48.2898066,117.070067 C53.004778,105.790792 62.2976619,100.162217 66.3245565,99.8765089 C85.2382358,98.5345844 95.0282934,99.0900381 95.6947294,101.54287 Z" id="Legs" fill="#FF7058" fill-rule="nonzero"></path>
                    <path d="M150.043436,4.00586478 C151.432221,3.9149487 152.631756,4.96707922 152.722672,6.35586409 L152.722672,6.35586409 L155.283147,45.4682855 C155.304971,45.8016617 155.260288,46.13605 155.151696,46.4519991 C154.699322,47.7681856 153.26562,48.4684441 151.949434,48.0160702 L151.949434,48.0160702 L143.474414,45.1033895 L145.248257,70.4853845 C145.344892,71.873648 144.298224,73.0777022 142.910022,73.1752166 L133.586937,73.8277925 C132.254134,73.9214153 131.090968,72.9605129 130.914069,71.6551583 L130.897153,71.4902463 C130.897145,71.4901314 130.897137,71.4900166 130.897473,71.4898777 L128.73994,40.6053188 C128.726705,40.4151794 128.734916,40.2284955 128.762515,40.0476368 L128.564083,39.9785143 L118.669694,38.3301278 C115.207853,37.7533917 112.556715,34.936904 112.190223,31.4465391 L112.190223,31.4465391 L112.18898,31.4347005 C111.821991,27.9395914 113.802078,24.6206399 117.052044,23.2834068 L117.052044,23.2834068 L127.038221,19.1744872 L148.79458,4.43422012 C149.165399,4.1829845 149.59648,4.03512455 150.043436,4.00586478 Z" id="Object" fill="#324A5E" fill-rule="nonzero"></path>
                    <path d="M132.465278,37.6012805 L141.811174,37.6006398 C143.202931,37.600199 144.331251,38.7283641 144.331346,40.1201217 C144.331346,40.1202368 144.331346,40.1203519 144.331001,40.120467 L144.328881,71.0802946 C144.32844,72.4719173 143.200331,73.6000266 141.808708,73.6004674 L132.462812,73.6011081 C131.071055,73.6015489 129.942735,72.4733838 129.942639,71.0816262 C129.942639,71.0815111 129.942639,71.081396 129.942985,71.0812809 L129.945105,40.1214533 C129.945546,38.7298306 131.073655,37.6017213 132.465278,37.6012805 Z" id="Shadow-Object" fill="#444444" fill-rule="nonzero" opacity="0.176985679" transform="translate(137.136993, 55.600874) rotate(-4.000000) translate(-137.136993, -55.600874) "></path>
                    <path d="M152.789803,2.13443274 C154.378717,2.13443274 155.666786,3.4225015 155.666786,5.01141483 C155.666786,5.01148052 155.666786,5.0115462 155.666786,5.01161188 L155.66395,46.4174222 C155.663841,48.0064763 154.375627,49.2946014 152.786573,49.2946014 C151.19766,49.2946014 149.909591,48.0065326 149.909591,46.4176193 C149.909591,46.4175536 149.909591,46.4174879 149.909591,46.4174222 L149.912427,5.01161188 C149.912536,3.42255784 151.200749,2.13443274 152.789803,2.13443274 Z" id="Object" fill="#FFCB3D" fill-rule="nonzero" transform="translate(152.788188, 25.714517) rotate(-4.000000) translate(-152.788188, -25.714517) "></path>
                    <path d="M80.4942136,38.9473274 L89.4601648,39.5751528 C90.4517376,39.6448059 91.1993578,40.5048446 91.1303328,41.4964614 L91.0299835,42.9329364 C91.0169757,43.1198077 90.9758798,43.2980172 90.9111081,43.4637306 C96.7051528,46.0234214 100.895061,50.8855316 102.455871,56.3835558 C102.994519,58.2555558 103.095516,60.2715558 102.893523,62.2155558 L102.893523,62.2155558 L100.671599,87.5235558 C100.637934,87.9195558 100.604268,88.2795558 100.604268,88.6755558 C100.570603,90.5475558 100.200282,92.8515558 98.7526656,94.7595558 C96.6654043,97.5675558 93.4335158,101.527556 79.9673137,101.383556 C67.4437459,101.239556 64.4475159,97.2795558 62.4275856,94.5435558 C60.9799689,92.5995558 60.6769793,89.9355558 60.6433138,88.1355558 C60.6433138,87.7395558 60.6096483,87.3795558 60.5759828,86.9835558 L60.5759828,86.9835558 L59.6151028,74.6226175 C58.7002315,75.3744256 57.8488933,75.9531666 57.0747798,76.2964771 C54.1171532,77.6081505 52.1281397,75.0015954 51.1077392,68.4768119 C47.8568626,64.2817792 38.2465272,58.1673236 53.9326343,46.2227676 C59.8113916,41.7462493 65.2748591,41.6108769 69.4437111,43.4912235 C72.1334121,42.3748707 75.1985289,41.7078101 78.5061254,41.5753684 L78.5733971,40.6175298 C78.6424289,39.625817 79.5025179,38.8780496 80.4942136,38.9473274 Z" id="T-shirt" fill="#3D5A74" fill-rule="nonzero"></path>
                    <path d="M127.937801,293.63974 L130.281819,299.541771 L102.977899,301.295892 L103.760322,293.920076 L127.937801,293.63974 Z M14.2240916,292.300814 L40.90829,292.8447 L40.3512607,299.249111 L11.8323425,299.249111 L14.2240916,292.300814 Z M107.630521,91.3610811 C118.899151,109.926738 124.931997,128.078396 125.729367,145.815233 C126.189758,156.05625 125.174759,162.53004 122.684368,165.236603 C112.081449,121.193652 100.451842,102.894204 95.7207429,101.564116 L95.6325437,101.541206 L95.6794529,101.552999 L95.6657881,101.484224 L95.6657881,101.484224 C99.0195379,99.0987692 103.007883,95.7243826 107.630521,91.3610811 Z M145.487012,49.3151015 L145.674552,50.3786939 C145.786056,51.0110667 145.651298,51.6299021 145.339169,52.1368141 C145.780186,52.5041146 146.099369,53.0243968 146.207051,53.6350945 L146.394591,54.6986869 C146.556118,55.6147478 146.200871,56.5024008 145.538269,57.0625666 C146.416592,57.3288349 147.116539,58.0687841 147.286929,59.035116 L147.474469,60.0987084 C147.716146,61.4693221 146.800961,62.7763412 145.430347,63.0180174 L132.466544,65.3032736 L131.87489,65.9683064 C116.126141,83.6022963 104.132864,95.3811855 95.8950578,101.304974 L95.5805437,101.528206 L95.579496,101.528996 C93.4169346,103.063941 91.5189058,104.184631 89.8859846,104.891997 C82.6958592,108.006687 71.7953789,98.3918807 57.1845437,76.0475764 C61.6290283,73.8237745 68.4638003,64.3919915 75.2593683,58.8102037 C75.3450207,58.73985 75.4276713,58.6674705 75.5073518,58.5931485 L89.4529375,76.4871528 C113.785836,58.9955347 125.952285,50.2497257 125.952285,50.2497257 C125.952285,50.2497257 125.958673,50.2644206 125.971449,50.2938105 C126.176824,50.1949598 126.398891,50.1219771 126.634405,50.0804497 L142.567703,47.2709794 C143.938316,47.0293033 145.245335,47.9444879 145.487012,49.3151015 Z M98.3098528,6.2119462 C99.5339326,6.7036724 100.739697,7.44929598 101.788655,8.53068647 C102.059864,8.80040629 102.33609,9.14195072 102.612317,9.48349514 C102.691597,9.58620959 102.770877,9.68892404 102.852666,9.8275508 C103.593746,10.9082835 104.070387,12.1612731 104.21826,13.4774859 L104.248342,13.8077931 L104.805041,20.2285622 C104.814322,20.8774949 104.859479,21.5239164 104.797006,22.1778716 C104.280151,30.2616528 101.485995,36.1952092 98.5358036,36.7986769 C98.1820515,36.8956138 96.2572395,37.2107819 93.9259915,36.8687286 C93.7057122,36.8119714 93.8901145,36.8712398 90.7344507,36.0816613 C90.6807538,36.0683993 90.6275285,36.0551997 90.5747712,36.042063 L90.355794,40.0077865 C84.176409,39.8199804 80.680039,39.5329429 79.8666838,39.1466738 L79.8142912,39.1195638 L80.0257815,32.5331111 L79.8142912,30.0217609 L79.9966932,27.9880707 L82.9167652,28.2942056 L83.0645871,27.9574208 C83.0357978,27.93237 83.0271893,27.9059066 83.0246844,27.8942406 C82.8909741,27.5365181 82.5480114,27.2718207 82.2609957,27.2919106 C81.6026666,27.1575512 80.6089011,26.8662315 79.7260296,26.0980068 C78.4951777,24.9932602 77.6805512,23.1376214 78.1241269,21.2300018 C78.5368432,19.396718 78.6724542,16.4995813 80.397057,16.4149544 C81.3682437,16.3830634 82.9110442,16.3506635 83.0236926,16.4149544 C83.136341,16.4792453 85.5085169,18.042621 85.4124297,17.1832369 C85.3483716,16.6103141 85.0147007,13.5541681 84.4114172,8.01479889 C84.371277,7.440202 84.7666779,6.90729492 85.3382005,6.83120289 C86.3761235,6.72246482 87.3706433,6.50850108 88.3935138,6.18428918 C89.4956645,5.96279173 90.2774313,5.79980768 90.5260612,5.74631675 C92.2664709,5.37188019 95.4311696,5.25862859 98.3098528,6.2119462 Z" id="Skin" fill="#F2A98A" fill-rule="nonzero"></path>
                    <path d="M95.5809601,101.53577 L95.5197133,101.521034 C100.50462,102.499042 113.887297,123.696184 125.25621,176.635554 C132.202931,208.982976 135.932032,244.445701 136.443513,283.023731 C136.520202,288.809572 131.892038,293.562108 126.106197,293.638819 L126.036751,293.639509 L126.036751,293.639509 L125.596809,293.639964 C122.245673,293.643847 115.249163,293.698214 104.607281,293.803064 C98.8542587,293.859746 94.0667567,289.39652 93.7204604,283.65365 L88.8963875,203.65273 L78.6292243,184.498034 L95.5970528,101.765119 C95.5998624,101.686969 95.5944981,101.61052 95.5809601,101.53577 Z" id="Shadow-Skin" fill="#444444" fill-rule="nonzero" opacity="0.176985679"></path>
                    <path d="M107.630521,91.3610811 C118.899151,109.926738 124.931997,128.078396 125.729367,145.815233 C126.189758,156.05625 125.174759,162.53004 122.684368,165.236603 C111.94443,120.624498 100.151098,102.425546 95.5408,101.521034 L95.6794529,101.552999 C95.6756722,101.529913 95.6711173,101.506988 95.6657881,101.484224 C99.0195379,99.0987692 103.007883,95.7243826 107.630521,91.3610811 Z" id="Combined-Shape-Copy" fill="#8C2A00" fill-rule="nonzero" opacity="0.2"></path>
                    <polygon id="Shadow" fill="#324A5E" fill-rule="nonzero" transform="translate(88.801546, 37.228532) scale(-1, 1) rotate(4.000000) translate(-88.801546, -37.228532) " points="87.3762765 39.6672798 90.7704511 34.7897851 86.8326408 36.2053136"></polygon>
                    <path d="M67.7968085,0.193816741 C71.99935,1.01151302 75.0978049,4.24138832 75.8349191,8.08890514 C78.125287,6.95104722 80.365989,7.24886124 85.2130082,6.58735045 C85.641023,6.52130334 86.3535447,6.39925407 87.2813281,6.2621374 C87.6734659,6.19860153 87.9938497,6.14008813 88.3142336,6.08157472 C89.4163843,5.86007728 90.1981511,5.69709323 90.446781,5.6436023 C92.1871907,5.26916573 95.3518894,5.15591414 98.2305726,6.10923175 C99.4546524,6.60095795 100.660417,7.34658153 101.709375,8.42797202 C101.980584,8.69769184 103.122677,9.93979321 103.398903,10.2813376 C103.7111,11.3501045 102.704809,11.8235314 101.883295,12.1074065 L101.664956,12.1804323 C99.0193421,13.0151963 95.3069608,11.2218275 93.8467949,10.9631538 C91.4952142,13.9426112 89.1770016,16.8836451 86.8612979,19.8605912 C86.7581751,20.0396766 86.650625,20.2333898 86.5393377,20.4397608 L86.1261974,19.6594298 C86.1261974,19.6594298 85.4718857,18.5504157 84.1584906,17.8123258 C84.0458422,17.7480349 83.2239352,17.3364221 82.2527485,17.3683131 C80.5281458,17.4529399 78.9089109,19.0458837 78.4961946,20.8791674 C78.0167419,22.7892983 78.8313685,24.6449371 80.0597115,25.7137714 C81.2905633,26.8185181 82.9590617,26.9422106 83.4329884,27.0173014 L83.4420687,27.0159999 L83.5516574,27.2530744 C84.1693927,28.6797138 84.2016834,30.1995384 83.6485294,31.812548 C83.1430187,33.2866286 81.7366415,34.6782862 80.0680805,35.8077648 L76.8928451,35.593825 L79.9123059,31.6186903 C78.7642438,30.6927633 77.0077983,29.2012777 75.9617035,27.9493614 C75.1355333,26.9606405 72.4919361,24.727791 71.4525211,20.6865241 C71.3417259,20.2050953 71.1249085,19.3223866 71.0072178,18.210783 C68.9938054,19.3214383 66.5633998,19.757683 64.0911325,19.2766495 C58.631763,18.2144099 55.0356133,13.0814571 56.0590724,7.81191053 C57.0822016,2.5422998 62.3374389,-0.868422535 67.7968085,0.193816741 Z M97.0914463,18.0767613 C97.8410727,17.9846281 98.4159669,18.2404036 98.7722991,18.4867712 C99.1242484,18.6974071 99.0384412,19.1794679 98.6902422,19.2948042 C97.9938443,19.5254768 96.9047849,19.8044096 95.8301398,19.6100563 C94.1712019,19.3787047 95.6278902,18.2566404 97.0914463,18.0767613 Z M104.172956,17.4622575 C104.891262,17.4245756 105.446931,17.7198702 105.785227,17.9905186 C106.083842,18.1911499 105.96465,18.6660449 105.609262,18.7567871 C104.898485,18.9382717 103.792641,19.1404813 102.80787,18.9037465 C101.167214,18.5211721 102.70043,17.5395054 104.172956,17.4622575 Z" id="Hair" fill="#324A5E" fill-rule="nonzero"></path>
                    <path d="M102.241637,28.0556343 C102.241637,28.0556343 102.027875,28.7878362 101.859592,29.0129606 C101.530555,29.6070122 100.362444,29.3077966 99.9617293,29.2206696 C99.7065579,29.161957 99.086587,29.0142333 98.9581365,28.6244282 C98.954372,28.5525269 98.91281,28.446559 98.9449608,28.3727736 C99.0754462,28.1135826 99.5139585,28.2347761 100.162316,28.2368131 C101.313487,28.2124727 102.241637,28.0556343 102.241637,28.0556343 Z M100.829109,19.7646324 C101.027259,19.7508738 101.19905,19.9005109 101.212816,20.0988563 L101.358251,22.1944185 L102.12977,25.9877981 C102.219287,26.3929186 101.926132,26.8075283 101.520322,26.8972822 C101.474935,26.9067555 101.433896,26.914804 101.392543,26.9224314 C101.140545,26.9689114 100.904603,26.9969954 100.466171,27.0372658 C100.398513,27.0434803 100.141635,27.066675 100.138214,27.0669855 C99.9959675,27.0798961 99.8795681,27.0907026 99.7588362,27.1023107 C99.5611207,27.1213207 99.3854287,26.9762927 99.366417,26.7783816 C99.3474053,26.5804705 99.4922732,26.4046212 99.6899886,26.3856113 C99.8121661,26.3738641 99.9297687,26.362946 100.073186,26.3499291 C100.077107,26.3495731 100.333365,26.3264345 100.400371,26.3202799 C100.818519,26.2818726 101.037154,26.2558485 101.262126,26.2143534 C101.298144,26.2077101 101.333833,26.2007109 101.36946,26.1932974 C101.397258,26.1871203 101.427692,26.1440775 101.426184,26.1372493 L100.648693,22.3147576 L100.642329,22.2678875 L100.495252,20.1486806 C100.481486,19.9503352 100.630959,19.778391 100.829109,19.7646324 Z M98.1820415,21.9693629 C98.6047955,23.0887407 97.6772865,24.8684303 97.1224117,24.3026857 C96.7623481,23.900568 96.7104093,22.8932661 96.7287779,22.2773198 C96.7269914,21.8438261 97.0539233,21.4538199 97.4838559,21.4161686 C97.7704797,21.3910923 98.0338096,21.5125566 98.1820415,21.9693629 Z M104.592067,21.3718682 C105.014821,22.4912461 104.087312,24.2709357 103.532437,23.705191 C103.172374,23.3030734 103.120435,22.2957715 103.138804,21.6798252 C103.137017,21.2463314 103.463949,20.8563253 103.893882,20.818674 C104.180505,20.7935977 104.443835,20.9150619 104.592067,21.3718682 Z" id="Face" fill="#324A5E" fill-rule="nonzero"></path>
                    <path d="" id="Path-26" stroke="#979797" stroke-width="0.9"></path>
                    <path d="M74.2562297,59.1798797 C75.1763159,54.825298 75.1763159,50.4256684 74.2566707,45.9857082 C74.1961817,45.6936731 73.9104046,45.505968 73.6183695,45.5664569 C73.3263345,45.6269459 73.1386293,45.9127231 73.1991183,46.2047581 C74.0886864,50.499509 74.0886864,54.7485553 73.1995593,58.9566142 C73.1379062,59.2484057 73.3244703,59.5349291 73.6162618,59.5965822 C73.9080532,59.6582353 74.1945767,59.4716712 74.2562297,59.1798797 Z" id="Shadow" fill="#324A5E" fill-rule="nonzero" transform="translate(74.067067, 52.581741) rotate(-15.000000) translate(-74.067067, -52.581741) "></path>
                </g>
            </g>
            <g id="Man-standing-/-1" transform="translate(264.600000, 0.000000)" fill-rule="nonzero">
                <g id="Man" transform="translate(0.709646, 0.332629)">
                    <g id="Legs" transform="translate(32.368110, 101.451844)">
                        <path d="M144.937205,222.582369 C145.800354,222.582369 146.55561,223.20413 146.55561,223.950244 L146.55561,224.447652 C146.55561,225.193766 145.836319,225.815527 144.937205,225.815527 L108.073524,225.815527 C107.210374,225.815527 106.455118,225.193766 106.455118,224.447652 L106.455118,223.950244 C106.455118,223.20413 107.174409,222.582369 108.073524,222.582369 L144.937205,222.582369 Z M60.2424764,222.582369 C61.1352882,222.582369 61.8590551,223.306136 61.8590551,224.198948 C61.8590551,225.09176 61.1352882,225.815527 60.2424764,225.815527 L60.2424764,225.815527 L1.61657867,225.815527 C0.723766923,225.815527 0,225.09176 0,224.198948 C7.10542736e-15,223.306136 0.723766923,222.582369 1.61657867,222.582369 L1.61657867,222.582369 Z" id="Base" fill="#FF7058"></path>
                        <path d="M33.4592436,200.026561 L61.1868268,200.646806 L60.4553114,222.596255 C60.3856654,222.587095 60.3146229,222.582369 60.2424764,222.582369 L60.2424764,222.582369 L1.87337069,222.583586 C1.8345363,222.386673 1.81482564,222.13842 1.82044006,221.81677 C1.86079283,221.565967 1.86581417,221.278619 1.9427537,220.992525 C2.40439085,219.275961 2.96386257,218.135973 4.60022397,217.12255 C6.23658537,216.109127 7.90702285,215.204086 9.64749551,214.408054 C16.0668615,211.394117 18.2603659,211.432361 22.4812061,208.667527 C24.2279554,207.512311 25.8340067,206.174994 27.3340638,204.728041 C28.3341018,203.763406 30.3758284,202.196246 33.4592436,200.026561 Z M136.854874,200.77176 L145.134647,222.593231 C145.069672,222.586066 145.003759,222.582369 144.937205,222.582369 L144.937205,222.582369 L108.197226,222.582189 C110.135238,210.364986 111.104244,204.256385 111.104244,204.256385 L136.854874,200.77176 Z" id="Shoes" fill="#324A5E"></path>
                        <path d="M54.0079135,3.56156521 C54.4003402,3.97065813 54.7965322,4.27204478 55.1952346,4.50162727 C55.990129,5.03259641 56.6609087,5.23572345 56.6609087,5.23572345 C56.6609087,5.23572345 56.6947615,5.23690428 56.7273591,5.27398719 C56.7273591,5.27398719 78.4581098,11.9271074 100.634401,6.80552414 C100.634401,6.80552414 100.66505,6.79061728 100.685483,6.78067938 L100.703362,6.77198371 C100.703362,6.77198371 101.386693,6.61608989 102.216731,6.14180061 C102.596643,5.93937722 103.048025,5.63160924 103.46681,5.28675833 C103.993426,4.82393972 104.437337,4.25658291 104.811416,3.6252193 C107.263027,9.0786741 113.797933,25.9609201 118.642225,59.889953 C119.039898,62.7041895 119.419887,65.4439808 119.782665,68.1036517 L119.835974,68.0448997 C127.100484,102.587167 132.13239,126.766338 134.931693,140.582413 C137.806751,154.772381 132.812466,154.291921 134.931693,166.214025 C136.153568,173.087909 141.154465,178.825611 140.737855,185.894589 C140.672196,187.00868 140.582268,189.236071 140.468069,192.576763 C140.262909,198.57827 135.611468,203.482998 129.629254,204.005783 L105.511473,206.113434 C98.9752396,206.684637 93.213526,201.849023 92.6423252,195.31279 C92.6371133,195.253151 92.6323523,195.193473 92.6280426,195.133762 C92.2538544,189.949354 92.0881897,186.86963 92.1310484,185.894589 C92.2200459,183.86989 92.2913579,182.026006 92.3402457,180.345436 C91.2554308,174.631209 90.1252102,168.68335 89.2159033,163.888554 C87.7802784,161.396009 86.1171078,157.96752 84.9514813,152.50047 C84.1847094,148.904139 82.7431096,134.987925 80.6266819,110.751829 C80.5787684,110.433563 80.5071588,109.42979 80.4118902,107.740682 C79.0263192,101.339724 77.7534628,95.4594767 76.5933211,90.0999404 C76.2896077,92.1221467 75.9808499,94.1667311 75.6683071,96.2292324 C74.5733792,125.074893 73.7129769,141.26547 73.0870388,144.803177 C71.1170587,155.937201 66.8211505,158.806324 66.5155407,162.321519 C66.2161778,165.764861 66.4772811,170.819191 67.0786002,178.427233 C67.1554947,179.400122 67.0975457,182.483409 66.9047531,187.677092 C66.9025207,187.737232 66.8998313,187.797355 66.8966852,187.857454 C66.6220407,193.103905 62.9835041,197.376676 58.1804616,198.695197 C55.0673452,201.250016 50.3932483,198.941054 37.8173096,198.368535 C37.8173096,198.368535 35.8809162,198.28421 33.3338674,197.996459 L30.2351368,197.834539 C28.3983197,197.738385 26.6719416,197.227015 25.1487741,196.391654 C23.673879,195.896374 22.4638218,195.283015 21.8130773,194.52467 C21.2736088,193.878039 20.9499277,193.159559 20.9499277,193.159559 C20.7972192,192.762965 20.6935019,192.375007 20.624092,192.010352 C19.7103822,190.464251 19.1360408,188.690638 19.0045523,186.791225 C18.7736727,183.456074 18.6059564,181.23289 18.5014035,180.121672 C17.838065,173.071523 22.6354466,167.162984 23.6164108,160.250693 C25.3178009,148.261975 20.3433453,148.916243 22.7208696,134.634694 C24.9806319,121.060529 28.7060015,105.481265 33.8969782,87.8969008 L34.277711,86.6107114 L34.129693,87.110087 C38.1508035,58.6806679 43.153943,26.7629426 47.3766893,16.1706003 C47.4477931,15.9812041 50.1304868,8.45523881 53.7119215,3.23171137 C53.8064514,3.34721139 53.9052093,3.45657678 54.0079135,3.56156521 Z" fill="#2C9D78" transform="translate(79.600572, 104.695483) rotate(-3.000000) translate(-79.600572, -104.695483) "></path>
                        <path d="M53.8872322,5.24359146 C54.2796588,5.65268438 54.6758509,5.95407104 55.0745533,6.18365352 C55.8694477,6.71462266 56.5402273,6.9177497 56.5402273,6.9177497 C56.5402273,6.9177497 56.5740801,6.91893053 56.6066777,6.95601344 C56.6066777,6.95601344 57.1611272,7.12576455 58.1832782,7.39016417 C64.3675602,36.0200732 67.4592469,50.3346514 67.4592469,50.3346514 L76.4558537,91.8965051 C76.1573749,93.8806634 75.8543375,95.8872364 75.5476557,97.9110609 C74.4527458,126.756017 73.592313,142.947398 72.9663574,146.485203 C70.9963773,157.619227 66.7004691,160.48835 66.3948593,164.003546 C66.0954964,167.446887 66.3565997,172.501217 66.9579188,180.10926 C67.0349348,181.083686 66.9766809,184.175182 66.7831571,189.383748 L66.7750571,189.564518 L66.7750571,189.564518 C66.5001202,194.804704 62.8584549,199.071274 58.0534876,200.382494 C54.9402078,202.928856 50.2638868,200.622685 37.6966283,200.050561 C37.6966283,200.050561 35.7627012,199.966344 33.2180531,199.679035 L30.1042828,199.516033 C28.2610323,199.419541 26.5291335,198.904986 25.0025139,198.064639 C23.5392307,197.571306 22.3393798,196.960659 21.692396,196.206697 C21.1529275,195.560065 20.8292464,194.841586 20.8292464,194.841586 C20.6788808,194.451077 20.5760147,194.06894 20.5066297,193.709179 C19.5915081,192.164448 19.0167053,190.392594 18.8853728,188.494949 C18.6537185,185.147741 18.4855016,182.917324 18.3807221,181.803698 C17.7173836,174.753549 22.5147653,168.84501 23.4957295,161.932719 C25.1971195,149.944001 20.2226639,150.59827 22.6001882,136.316721 C24.8935602,122.540666 28.6964598,106.699424 34.0088869,88.7929953 C38.0300186,60.3633544 43.033218,28.4450784 47.256008,17.8526265 C47.3271118,17.6632304 50.0098055,10.1372651 53.5912402,4.91373762 C53.6857701,5.02923764 53.784528,5.13860303 53.8872322,5.24359146 Z" id="Shadow-Legs" fill="#444444" opacity="0.176985679" transform="translate(47.386942, 103.234780) rotate(-3.000000) translate(-47.386942, -103.234780) "></path>
                    </g>
                    <g id="Body" transform="translate(0.050599, 0.260683)">
                        <path d="M112.574152,36.0395852 C127.703707,32.7696858 132.482973,41.0281029 138.620909,49.3321613 C141.076683,52.6545964 138.929933,55.7219739 132.180657,58.5342939 C132.221376,58.9491228 132.262136,59.3779166 132.302003,59.820297 L132.302003,59.820297 L132.303886,59.9280525 L132.402379,61.6868779 C132.981536,81.2583264 133.270787,90.0559966 133.432648,93.502401 C133.432648,93.502401 133.405057,93.8621765 133.44834,94.4003635 C133.543694,95.9795964 133.69117,102.480254 130.693241,105.40688 C130.293099,105.773151 129.858461,106.104094 129.489676,106.3261 C128.685626,106.843131 128.011399,107.034534 128.011399,107.034534 C128.011399,107.034534 127.94429,107.071634 127.94429,107.071634 C106.066737,113.345505 84.0171765,107.837519 84.0171765,107.837519 C83.6442872,107.739217 83.2847153,107.638766 82.6003401,107.297754 C81.9288778,106.963177 81.2896881,106.470103 81.0849947,106.277942 C78.0205074,103.457017 78.0675083,96.9468438 78.1076274,95.3652488 C78.1004378,94.9538188 78.0945086,94.6145225 78.0925903,94.5047431 L78.0919357,94.4672864 C78.1303384,91.179868 78.1168021,83.1959676 78.0270664,65.8750879 C69.4403852,65.0767989 65.9638272,62.6010713 67.5972273,58.4480508 C71.3084534,49.0120294 73.7657092,39.957567 88.4903831,38.9163195 C92.1031532,37.1174759 96.04696,36.515263 98.7921903,36.3318261 C100.382742,36.2322354 101.568759,36.2474862 102.043542,36.2751376 C102.246751,36.2715946 102.518325,36.3027891 103.026976,36.32985 C103.535628,36.3569109 104.112015,36.3827908 104.75614,36.4074897 C105.399009,36.3603516 105.974141,36.3143945 106.481537,36.2696185 C106.988933,36.2248424 107.225383,36.1847904 107.462461,36.1806568 C107.969857,36.1358807 109.12075,36.0798851 110.713813,36.1239683 C111.096143,36.1361511 111.501905,36.1553414 111.927062,36.1838432 L112.124919,36.1388061 L112.124919,36.1388061 Z" id="T-shirt" fill="#FFCB3D"></path>
                        <path d="M82.6073918,43.4694723 C81.9118503,44.3798353 81.0212591,45.7606819 80.3445477,47.7486 C80.2479643,48.0377195 80.1507533,48.2909205 80.0541699,48.58004 C79.8277625,49.194788 79.3423349,50.4967116 78.9265268,51.9052096 C78.4799887,53.4938906 78.1262939,56.5181306 77.8949169,60.7259095 L77.8967999,60.833665 L77.8598192,62.5948525 C77.8657663,63.7038104 77.8714332,64.7780808 77.8768253,65.8186689 C69.5022067,64.9911947 66.1222396,62.5247249 67.7371407,58.4187393 C71.4172257,49.0618962 73.8642964,40.0802354 88.262213,38.9149077 C86.1602845,39.9731992 84.1740455,41.4401141 82.6073918,43.4694723 Z" id="Shadow-T-shirt" fill="#444444" opacity="0.176985679"></path>
                        <path d="M137.066456,55.7586292 C146.20404,92.4885964 151.140819,116.044861 151.876939,126.427515 C151.933233,126.754391 151.967553,127.1071 151.979795,127.483345 C152.176405,133.525646 150.165995,142.773024 145.948564,155.225481 C145.915129,155.29854 134.947173,160.678025 127.231215,156.130726 L129.621551,146.47923 C129.367267,146.671446 129.21908,146.757944 129.21908,146.757944 C124.531899,145.972177 131.152432,128.749341 133.216606,123.664316 L116.25091,63.0378442 C126.771268,60.8099338 133.709784,58.3835288 137.066456,55.7586292 Z M3.25005643,39.4895949 L34.2523206,41.4908707 L34.3368061,41.4326473 L61.2217327,69.7593701 C64.0273609,66.7752796 65.937217,64.3357467 67.6156555,61.9854387 C68.7722475,64.0338302 72.2338468,65.3260111 77.9991059,65.8619974 C78.0621435,78.0295797 78.0875784,85.5895586 78.0838204,90.1506063 C69.4712287,100.749393 63.7114847,99.0938535 63.7114847,99.0938535 C59.6911516,99.2683073 56.6169287,97.4382085 55.456869,96.7354947 C45.335268,90.6248872 26.1208459,56.61075 22.8119127,50.6613941 C18.438968,50.0644182 14.3554738,48.9140198 10.562594,47.2128124 C4.62967568,44.5517408 2.17091761,42.024224 3.18631978,39.6302622 L3.25005643,39.4895949 Z M95.1614066,1.64767472 C95.4791929,1.71725717 96.6074302,1.98055819 98.2396035,2.26069233 C99.1252657,2.42615763 99.839807,2.50130162 100.264775,2.58215567 C105.565564,3.3565843 107.74109,2.93444117 110.270332,4.64693752 C110.744211,4.94991194 111.819847,5.7139602 112.688703,7.07102989 C115.139178,10.908847 113.979443,15.4157208 113.658034,16.7561059 C112.586626,20.7659896 109.965636,23.0217507 109.142136,23.9838688 C108.529197,24.7116327 107.678283,25.5240562 106.850621,26.2579336 L107.651536,37.8646002 C107.660322,38.1161966 107.561352,38.3715666 107.349693,38.4869376 C106.43626,39.094706 105.130405,39.7881892 103.491416,40.205448 C100.535308,40.9927077 97.9687244,40.5787786 96.5176142,40.1977594 C96.2278928,40.1359326 96.0024663,39.8559364 95.9924534,39.5683966 L95.5612432,31.9561577 C95.2460495,32.0385641 94.9097678,32.1240443 94.5514075,32.2134015 C91.3943767,33.0386047 91.5842836,32.9500877 91.3624068,32.9990798 C89.0514866,33.3346588 87.1297395,33.0602348 86.7799833,32.9511275 C85.5050806,32.7085653 84.2601681,31.4927619 83.2370651,29.5408665 C81.8491097,26.9358344 80.7825632,22.9904172 80.4737321,18.365266 C80.4135092,17.8381886 80.4218822,17.3183251 80.4439744,16.7999043 L80.4622585,16.4112691 L80.9918889,9.99382907 C81.1064498,8.55936546 81.5782813,7.16247383 82.4280818,5.94998204 C82.7740135,5.40775706 83.1086736,4.97283507 83.5072734,4.6169628 L83.5213524,4.60236314 L83.5213524,4.60236314 L83.5899991,4.51717421 C86.7430033,0.979338879 92.5476614,1.0835007 95.1614066,1.64767472 Z" id="Skin" fill="#F2A98A"></path>
                        <path d="M68.5227986,44.7644221 C68.9074213,48.7701153 67.2407229,51.935905 66.599685,53.1311522 C61.0271756,63.5586864 28.0652587,84.5269382 22.2972323,88.1427018 C21.9299368,92.5408968 20.9948286,96.679002 19.4944566,100.555718 C17.1475369,106.619775 14.7521655,109.207444 12.3083424,108.318723 L12.1645322,108.262436 L12.5405322,77.1979206 L12.4779669,77.1165981 L39.3588206,48.7860103 C36.2319844,46.1404023 33.6958407,44.3608389 31.260911,42.8077062 C33.2459639,41.5454948 34.3552079,38.021012 34.5887293,32.2356026 C46.7363371,31.5358493 54.2846242,31.1147906 58.8396178,30.8798366 C69.8746276,38.9259274 68.5227986,44.7644221 68.5227986,44.7644221 Z" id="Shadow-Skin" fill="#8C2A00" opacity="0.2" transform="translate(40.372133, 69.684505) rotate(93.000000) translate(-40.372133, -69.684505) "></path>
                        <polygon id="Shadow" fill="#324A5E" transform="translate(97.729204, 33.768191) rotate(-2.000000) translate(-97.729204, -33.768191) " points="95.0521859 32.0408429 100.406223 30.5379939 95.8436007 36.9983888"></polygon>
                        <path d="M83.0099365,16.4304459 C82.0533997,16.7323322 80.8965818,16.6489969 80.2066625,16.5412201 C79.8437453,16.4882718 79.7115303,16.0275406 79.9497616,15.7632566 C80.2579412,15.4593376 80.8175277,15.1422579 81.5358333,15.1046556 C83.0083597,15.0275709 84.6394525,15.9134637 83.0099365,16.4304459 Z M94.5380259,2.09424827 C94.8976716,2.13017224 96.0485377,2.27386812 97.7388724,2.38164003 C98.6739511,2.45348797 99.3932425,2.45348797 99.8248173,2.48941194 C105.291431,2.70495577 107.449305,2.0583243 110.182613,3.49528312 C110.686116,3.74675091 111.872947,4.39338238 112.879955,5.65072134 C116.008872,9.45866221 115.253616,14.0928544 114.893971,15.1705735 C114.642219,15.9249769 114.174679,16.4279125 114.174679,16.4279125 C112.250028,16.3430972 110.470162,16.402904 108.721137,16.4935169 C108.669249,15.6245942 108.397333,14.7542495 107.844916,13.9850825 C106.69405,12.3685038 104.536176,11.4704046 102.809876,12.0451881 C101.838833,12.3685038 101.191471,13.1229072 101.119542,13.1947551 C100.190718,14.3630651 99.9529028,15.5971112 99.933979,15.7022111 L99.932711,15.7094331 L99.8441738,16.5614356 C86.5124646,13.0224665 83.3786329,7.11893962 82.6697188,6.8002884 C82.8495417,6.5488206 83.0293645,6.33327678 83.1372582,6.15365693 C85.9424944,2.30979209 91.8406834,1.80685651 94.5380259,2.09424827 Z M90.4934902,16.290505 C89.467005,16.6320263 88.3083049,16.5128163 87.6183857,16.4050395 C87.2554684,16.3520912 87.1232534,15.89136 87.3974,15.6251959 C87.7055796,15.3212769 88.2651661,15.0041972 89.019387,14.9647148 C90.4919134,14.88763 92.1248884,15.8093976 90.4934902,16.290505 Z" id="Hair" fill="#324A5E" transform="translate(97.535652, 9.333238) rotate(6.000000) translate(-97.535652, -9.333238) "></path>
                        <path d="M81.3103309,16.7420848 L81.3881361,16.7449308 C81.8228839,16.7941189 82.1309108,17.1737001 82.1534976,17.6041969 C82.1495805,18.2159476 82.0945373,19.2260806 81.7542069,19.6036291 C81.1718808,20.1737122 80.2876327,18.4213378 80.6961819,17.2847794 C80.8512891,16.8090073 81.0989316,16.724097 81.3881361,16.7449308 Z M87.7111074,16.4499052 C88.1420894,16.4273184 88.5200659,16.7672901 88.5785681,17.1959068 C88.6464814,17.8038972 88.6991841,18.8083899 88.3626182,19.2576879 C87.8558871,19.8957602 86.7599118,18.226416 87.0588329,17.0596232 C87.1780249,16.5857312 87.423786,16.4649631 87.7111074,16.4499052 Z" id="Eyes" fill="#324A5E" transform="translate(84.610403, 18.081804) rotate(6.000000) translate(-84.610403, -18.081804) "></path>
                        <path d="M85.3411654,24.7804543 C85.5929208,24.7085913 86.2043272,24.5289348 86.3122439,24.1337636 C86.3122481,24.0619154 86.3482189,23.9541411 86.3122587,23.882295 C86.1684158,23.6308349 85.7368338,23.7745567 85.0894715,23.810519 C83.9386046,23.882435 83.0035352,23.774718 83.0035352,23.774718 C83.0035352,23.774718 83.2552439,24.4931848 83.4350535,24.7087186 C83.7946662,25.2475586 84.94555,24.8882499 85.3411654,24.7804543 Z" id="Mouth" fill="#324A5E" transform="translate(84.665887, 24.367433) rotate(3.000000) translate(-84.665887, -24.367433) "></path>
                        <path d="M83.194245,17.5200111 L83.1977277,17.470138 L83.194245,17.4949532 L83.194245,17.5200111 Z M82.6582592,21.3140029 C82.590539,21.7191344 82.9049916,22.1169914 83.3149425,22.1852394 C83.4046866,22.1935507 83.4046866,22.1935507 83.4628844,22.1980304 C84.0696558,22.2446274 84.4490926,22.2619752 85.1003671,22.2619752 C85.2989939,22.2619752 85.4600128,22.1011381 85.4600128,21.9027355 C85.4600128,21.7043329 85.2989939,21.5434958 85.1003671,21.5434958 C84.4695466,21.5434958 84.1077927,21.5269564 83.518022,21.481665 L83.4016514,21.472706 C83.400671,21.4711214 83.368026,21.4298178 83.3691745,21.4229346 L83.9100537,17.5698841 L83.9135364,17.5200111 L83.9135364,15.4004968 C83.9135364,15.2020942 83.7525175,15.0412571 83.5538907,15.0412571 C83.3552639,15.0412571 83.194245,15.2020942 83.194245,15.4004968 L83.194245,17.4949532 L82.6582592,21.3140029 Z" id="Nose" fill="#324A5E" transform="translate(84.054531, 18.651616) rotate(3.000000) translate(-84.054531, -18.651616) "></path>
                        <path d="M107.597496,16.9273596 C107.762154,17.9799782 107.572448,19.1259499 107.094085,20.0474664 C106.512719,21.2087977 105.694339,21.8421427 104.637236,22.3294855 C104.456891,22.4126278 104.378169,22.6260614 104.461405,22.8062029 C104.544641,22.9863444 104.758316,23.0649779 104.938661,22.9818356 C105.403478,22.7675466 105.772429,22.5606854 106.199543,22.2301416 C106.828695,21.7432408 107.355239,21.1322286 107.735039,20.3734875 C108.281241,19.3213714 108.496549,18.0207403 108.308165,16.816443 C108.277501,16.6204189 108.093555,16.4863394 107.897309,16.5169682 C107.701064,16.547597 107.566833,16.7313355 107.597496,16.9273596 Z" id="Shadow" fill="#482D1F" transform="translate(106.401634, 19.763798) rotate(6.000000) translate(-106.401634, -19.763798) "></path>
                        <path d="M135.914063,144.190921 L136.001302,144.200717 C136.293736,144.257639 136.484585,144.540586 136.427575,144.832696 C136.069501,146.667404 135.745753,148.08424 134.989958,151.231775 C134.237714,154.364524 133.916333,155.770998 133.562163,157.585704 C133.505153,157.877814 133.221872,158.06847 132.929437,158.011547 C132.637003,157.954624 132.446154,157.671678 132.503164,157.379568 C132.861238,155.54486 133.184986,154.128024 133.940781,150.980489 C134.693025,147.84774 135.014406,146.441266 135.368576,144.62656 C135.425586,144.33445 135.708867,144.143794 136.001302,144.200717 Z M143.224991,142.643892 L143.321026,142.659867 C143.60937,142.734766 143.782314,143.028974 143.707308,143.316999 C143.193495,145.290054 142.829872,146.828277 142.046959,150.260769 C141.261649,153.703769 140.896276,155.249398 140.378818,157.236446 C140.303812,157.524471 140.009259,157.697244 139.720915,157.622345 C139.432571,157.547446 139.259626,157.253238 139.334632,156.965212 C139.848446,154.992157 140.212068,153.453934 140.994982,150.021443 C141.780292,146.578442 142.145665,145.032814 142.663122,143.045766 C142.738129,142.757741 143.032682,142.584968 143.321026,142.659867 Z" id="Fingers" fill="#324A5E"></path>
                    </g>
                </g>
            </g>
        </g>
    </g>
</svg>